{"glyphs":{"0":{"ha":2031,"x_min":60,"x_max":1971,"o":"m 1971 1210 l 1971 375 l 1596 0 l 433 0 l 60 374 l 60 1210 l 433 1583 l 1596 1583 l 1971 1210 l 1971 1210 m 1054 375 l 435 1378 l 435 206 l 553 375 l 1054 375 l 1054 375 m 1596 1378 l 1476 1210 l 976 1210 l 1596 206 l 1596 1378 l 1596 1378 z "},"1":{"ha":2013,"x_min":60,"x_max":1953,"o":"m 60 0 l 60 375 l 656 375 l 819 257 l 819 1147 q 778 1124 800 1136 q 735 1103 756 1113 l 735 978 l 361 978 l 361 1310 l 840 1583 l 1194 1583 l 1194 257 l 1358 375 l 1789 375 l 1953 257 l 1953 0 l 60 0 z "},"2":{"ha":2025,"x_min":60,"x_max":1965,"o":"m 60 608 l 433 982 l 1428 982 q 1510 925 1469 956 q 1590 865 1550 894 l 1590 1329 q 1508 1271 1550 1300 q 1425 1213 1467 1242 l 228 1213 l 60 1331 l 60 1583 l 1590 1583 l 1965 1210 l 1965 607 l 599 607 q 519 668 565 639 q 435 725 472 697 l 435 257 l 599 375 l 1797 375 l 1965 256 l 1965 0 l 60 0 l 60 608 z "},"3":{"ha":2025,"x_min":60,"x_max":1965,"o":"m 60 1583 l 1965 1583 l 1965 0 l 63 0 l 63 256 q 145 316 104 285 q 229 375 186 347 l 1422 375 l 1590 256 l 1590 725 l 1425 607 l 351 607 l 351 864 l 519 982 l 1590 982 l 1590 1329 q 1508 1271 1550 1300 q 1425 1213 1467 1242 l 228 1213 l 60 1331 l 60 1583 z "},"4":{"ha":2025,"x_min":60,"x_max":1965,"o":"m 232 1583 l 435 1369 l 435 865 q 516 922 475 894 q 596 981 557 950 l 1431 981 q 1510 924 1471 954 q 1590 865 1550 893 l 1590 1371 l 1792 1583 l 1965 1583 l 1965 0 l 1590 0 l 1590 606 l 438 606 l 60 979 l 60 1583 l 232 1583 z "},"5":{"ha":2025,"x_min":60,"x_max":1965,"o":"m 60 253 l 228 372 l 1425 372 q 1507 313 1465 342 q 1590 254 1549 283 l 1590 718 q 1507 662 1550 690 q 1428 601 1464 633 l 433 601 l 60 975 l 60 1583 l 1965 1583 l 1965 1329 l 1797 1210 l 599 1210 l 435 1326 l 435 860 l 599 976 l 1965 976 l 1965 374 l 1590 0 l 60 0 l 60 253 z "},"6":{"ha":2025,"x_min":60,"x_max":1965,"o":"m 1965 1583 l 1965 1329 l 1797 1210 l 599 1210 l 435 1326 l 435 860 l 599 976 l 1592 976 l 1965 603 l 1965 0 l 435 0 l 60 374 l 60 1583 l 1965 1583 m 435 254 l 600 372 l 1425 372 l 1590 254 l 1590 718 q 1510 658 1553 686 q 1428 601 1468 631 l 435 601 l 435 254 z "},"7":{"ha":2025,"x_min":60,"x_max":1965,"o":"m 1965 1583 l 1965 1214 q 1685 891 1825 1051 q 1407 567 1546 731 l 1407 119 l 1239 0 l 1032 0 l 1032 696 l 1517 1214 l 228 1214 l 60 1333 l 60 1583 l 1965 1583 z "},"8":{"ha":2031,"x_min":60,"x_max":1971,"o":"m 433 1583 l 1596 1583 l 1971 1210 l 1971 375 l 1596 0 l 433 0 l 60 374 l 60 1210 l 433 1583 l 433 1583 m 435 811 l 553 979 l 1596 979 l 1596 1378 l 1476 1210 l 553 1210 l 435 1378 l 435 811 l 435 811 m 553 375 l 1476 375 l 1596 206 l 1596 772 l 1478 604 l 435 604 l 435 206 l 553 375 l 553 375 z "},"9":{"ha":2025,"x_min":60,"x_max":1965,"o":"m 60 256 l 228 375 l 1426 375 l 1590 257 l 1590 725 l 1426 607 l 433 607 l 60 981 l 60 1583 l 1590 1583 l 1965 1210 l 1965 0 l 60 0 l 60 256 l 60 256 m 435 1329 l 435 865 l 597 982 l 1590 982 l 1590 1329 l 1425 1213 l 600 1213 l 435 1329 l 435 1329 z "},"\u0000":{"ha":0,"x_min":0,"x_max":0,"o":""},"\r":{"ha":0,"x_min":0,"x_max":0,"o":""}," ":{"ha":1067,"x_min":0,"x_max":0,"o":""},"\n":{"ha":0,"x_min":0,"x_max":0,"o":""},"A":{"ha":2031,"x_min":60,"x_max":1971,"o":"m 60 0 l 60 1210 l 433 1583 l 1596 1583 l 1971 1210 l 1971 0 l 1596 0 l 1596 1378 l 1476 1210 l 553 1210 l 435 1378 l 435 0 l 60 0 l 60 0 z "},"B":{"ha":2031,"x_min":60,"x_max":1971,"o":"m 1597 0 l 60 0 l 60 1583 l 1596 1583 l 1971 1210 l 1969 951 l 1743 792 l 1971 632 l 1971 382 l 1597 0 l 1597 0 m 1426 979 l 1594 860 l 1594 1329 l 1426 1210 l 601 1210 l 435 1331 l 433 979 l 1426 979 l 1426 979 m 601 376 l 1426 376 l 1594 256 l 1594 607 l 601 607 l 435 726 l 435 257 l 601 376 l 601 376 z "},"C":{"ha":2025,"x_min":60,"x_max":1965,"o":"m 60 375 l 60 1210 l 433 1583 l 1965 1583 l 1965 1210 l 601 1210 q 518 1270 560 1240 q 433 1329 476 1300 l 435 256 l 601 375 l 1965 375 l 1965 0 l 436 0 l 60 375 z "},"D":{"ha":2025,"x_min":60,"x_max":1965,"o":"m 60 1583 l 1589 1583 l 1965 1210 l 1965 375 l 1597 0 l 60 0 l 60 1583 m 1758 375 l 1590 493 l 1590 1090 q 1674 1151 1632 1121 q 1758 1210 1715 1181 l 435 1210 l 435 375 l 1758 375 z "},"E":{"ha":2025,"x_min":60,"x_max":1965,"o":"m 436 0 l 60 375 l 60 1210 l 433 1583 l 1965 1583 l 1965 1331 l 1797 1213 l 600 1213 q 517 1271 558 1242 q 435 1329 475 1300 l 435 982 l 1506 982 l 1674 864 l 1674 607 l 600 607 l 435 725 l 435 256 l 603 375 l 1794 375 l 1963 256 l 1963 0 l 436 0 z "},"F":{"ha":2022,"x_min":60,"x_max":1963,"o":"m 60 0 l 60 1210 l 429 1583 l 1963 1583 l 1963 1328 l 1794 1210 l 600 1210 l 435 1328 l 435 858 q 516 919 475 889 q 600 976 557 949 l 1674 976 l 1674 721 l 1506 601 l 435 601 l 435 118 l 267 0 l 60 0 z "},"G":{"ha":2025,"x_min":60,"x_max":1965,"o":"m 436 0 l 60 375 l 60 1210 q 246 1398 154 1304 q 433 1583 338 1492 l 1965 1583 l 1965 1326 l 1800 1210 l 601 1210 q 517 1269 558 1239 q 433 1329 475 1299 l 435 256 q 517 317 476 286 q 601 375 558 347 l 1429 375 l 1428 376 l 1426 376 l 1425 378 l 1426 376 l 1428 376 q 1474 344 1451 361 q 1519 310 1496 326 l 1590 260 l 1590 713 q 1508 653 1550 682 q 1426 596 1467 625 l 876 596 l 876 971 l 1965 971 l 1965 0 l 436 0 z "},"H":{"ha":2025,"x_min":60,"x_max":1965,"o":"m 269 1583 l 435 1467 l 435 979 l 1426 979 l 1592 861 l 1590 1583 l 1965 1583 l 1965 0 l 1754 0 l 1590 118 l 1590 604 l 599 604 l 435 722 l 435 0 l 60 0 l 60 1583 l 269 1583 l 269 1583 z "},"I":{"ha":2014,"x_min":60,"x_max":1954,"o":"m 60 1328 l 60 1583 l 1953 1583 l 1954 1210 l 1358 1210 q 1276 1267 1317 1239 q 1194 1326 1235 1296 l 1194 257 l 1358 375 l 1789 375 l 1953 257 l 1953 0 l 60 0 l 60 375 l 656 375 l 819 257 l 819 1326 l 656 1210 l 224 1210 l 60 1328 z "},"J":{"ha":2014,"x_min":60,"x_max":1954,"o":"m 60 583 l 271 583 l 435 468 l 433 258 q 516 316 475 286 q 597 375 557 346 l 1415 375 l 1579 257 l 1579 1326 q 1498 1267 1539 1297 q 1415 1210 1457 1238 l 644 1210 l 481 1326 l 481 1583 l 1954 1583 l 1954 374 l 1575 0 l 60 0 l 60 583 z "},"K":{"ha":2028,"x_min":60,"x_max":1968,"o":"m 60 0 l 60 1583 l 271 1583 l 435 1467 l 435 860 l 594 974 l 1171 974 l 1525 1583 l 1968 1583 l 1501 792 l 1965 0 l 1525 0 l 1108 715 l 944 600 l 435 600 l 435 115 l 272 0 l 60 0 l 60 0 z "},"L":{"ha":2031,"x_min":60,"x_max":1971,"o":"m 60 1583 l 435 1583 l 435 204 l 585 375 l 1808 375 l 1971 258 l 1971 0 l 440 0 l 60 375 l 60 1583 l 60 1583 z "},"M":{"ha":2025,"x_min":60,"x_max":1965,"o":"m 1965 1583 l 1965 0 l 1756 0 q 1723 24 1749 6 q 1669 64 1697 43 q 1617 101 1640 85 q 1590 118 1593 118 l 1590 1074 l 1300 576 l 728 576 l 435 1082 l 435 117 l 271 0 l 60 0 l 60 1210 l 433 1583 l 579 1583 l 951 949 l 1078 949 l 1450 1583 l 1965 1583 z "},"N":{"ha":2025,"x_min":60,"x_max":1965,"o":"m 433 1583 l 1322 1583 l 1590 1126 l 1590 1583 l 1965 1583 l 1965 0 l 1753 0 l 1590 117 l 1590 374 l 1103 1210 l 596 1210 q 515 1267 556 1238 q 435 1325 475 1296 l 435 117 l 274 0 l 60 0 l 60 1210 l 433 1583 z "},"O":{"ha":2031,"x_min":60,"x_max":1971,"o":"m 1971 1210 l 1971 375 l 1596 0 l 433 0 l 60 374 l 60 1210 l 433 1583 l 1596 1583 l 1971 1210 l 1971 1210 m 1596 1378 l 1476 1210 l 553 1210 l 435 1378 l 435 206 l 553 375 l 1476 375 l 1596 206 l 1596 1378 l 1596 1378 z "},"P":{"ha":2029,"x_min":60,"x_max":1971,"o":"m 1971 1210 l 1969 608 l 601 607 l 435 726 l 435 117 l 269 0 l 60 0 l 60 1583 l 1596 1583 l 1971 1210 l 1971 1210 m 1426 979 l 1594 860 l 1594 1329 l 1426 1210 l 601 1210 l 435 1331 l 433 979 l 1426 979 l 1426 979 z "},"Q":{"ha":2031,"x_min":60,"x_max":1971,"o":"m 60 1210 l 433 1583 l 1596 1583 l 1971 1210 l 1971 617 l 1806 499 l 1596 499 l 1596 1378 l 1476 1210 l 553 1210 l 435 1378 l 435 206 l 553 375 l 1806 375 l 1971 258 l 1971 0 l 433 0 l 60 374 l 60 1210 l 60 1210 z "},"R":{"ha":2029,"x_min":60,"x_max":1969,"o":"m 1969 1211 l 1969 607 l 1610 607 l 1747 372 l 1969 372 l 1969 0 l 1525 0 l 1171 607 l 601 607 l 435 726 l 435 117 l 269 0 l 60 0 l 60 1583 l 1596 1583 l 1969 1211 m 1426 979 l 1594 860 l 1594 1329 l 1426 1210 l 601 1210 q 517 1269 560 1239 q 435 1331 475 1299 l 433 979 l 1426 979 z "},"S":{"ha":2025,"x_min":60,"x_max":1965,"o":"m 60 607 l 60 1210 l 433 1583 l 1965 1583 l 1965 1331 l 1797 1213 l 600 1213 q 517 1271 558 1242 q 435 1329 476 1300 l 435 865 l 597 982 l 1965 982 l 1965 0 l 60 0 l 60 256 l 228 375 l 1426 375 q 1509 317 1468 346 q 1590 257 1550 288 l 1590 725 l 1426 607 l 60 607 z "},"T":{"ha":2025,"x_min":60,"x_max":1965,"o":"m 60 1210 l 508 1583 l 1965 1583 l 1965 1210 l 1260 1210 l 1260 117 l 1096 0 l 886 0 l 886 1210 l 581 1210 l 435 1088 l 435 994 l 60 994 l 60 1210 l 60 1210 z "},"U":{"ha":2033,"x_min":60,"x_max":1971,"o":"m 435 1583 l 435 206 l 553 374 l 1476 374 l 1596 206 l 1596 1583 l 1971 1583 l 1971 374 l 1596 0 l 433 0 l 60 374 l 60 1583 l 435 1583 l 435 1583 z "},"V":{"ha":2021,"x_min":60,"x_max":1961,"o":"m 60 1583 l 269 1583 l 435 1468 l 435 914 l 751 375 l 1268 375 l 1586 917 l 1586 1467 l 1750 1583 l 1961 1583 l 1961 810 l 1489 0 l 531 0 q 294 403 413 203 q 60 807 176 603 l 60 1583 z "},"W":{"ha":2021,"x_min":60,"x_max":1961,"o":"m 60 374 l 60 1583 l 269 1583 l 435 1468 l 435 260 l 596 375 l 658 375 q 740 315 699 344 q 822 258 781 286 l 822 1583 l 1199 1583 l 1199 261 l 1360 375 l 1424 375 l 1586 260 l 1586 1468 l 1750 1583 l 1961 1583 l 1961 374 l 1588 0 l 433 0 l 60 374 z "},"X":{"ha":2021,"x_min":60,"x_max":1961,"o":"m 60 0 l 60 274 l 238 604 l 60 717 l 60 1583 l 269 1583 l 435 1468 l 435 1093 l 269 978 l 1750 978 l 1586 1094 l 1586 1468 l 1750 1583 l 1961 1583 l 1961 717 l 1783 604 l 1961 274 l 1961 0 l 1751 0 l 1586 115 l 1586 239 l 1390 604 l 631 604 l 435 239 l 435 115 l 271 0 l 60 0 l 60 0 z "},"Y":{"ha":2021,"x_min":60,"x_max":1961,"o":"m 60 982 l 60 1583 l 274 1583 l 435 1468 l 435 988 l 1586 988 l 1586 1468 l 1751 1583 l 1961 1583 l 1961 979 l 1589 607 l 1342 607 l 1200 775 l 1200 0 l 821 0 l 821 775 l 678 607 l 433 607 l 60 982 l 60 982 z "},"Z":{"ha":2025,"x_min":60,"x_max":1965,"o":"m 60 374 l 60 375 l 1313 1213 l 228 1213 l 60 1331 l 60 1583 l 1596 1583 l 1965 1215 l 1965 1213 l 711 375 l 1797 375 l 1965 256 l 1965 0 l 433 0 l 60 374 l 60 374 z "}," ":{"ha":654,"x_min":0,"x_max":0,"o":""},"­":{"ha":0,"x_min":0,"x_max":0,"o":""},"":{"ha":4089,"x_min":60,"x_max":4029,"o":"m 60 0 l 60 1210 l 433 1583 l 1596 1583 l 1971 1210 l 1971 253 l 2139 375 l 3490 375 q 3574 318 3533 350 q 3656 258 3615 286 l 3656 725 q 3574 665 3615 697 q 3490 608 3533 633 l 2125 608 l 2125 1210 l 2499 1583 l 4029 1583 l 4029 1332 l 3861 1213 l 2664 1213 q 2581 1271 2622 1242 q 2499 1329 2539 1300 l 2499 867 q 2580 925 2539 894 q 2663 982 2621 956 l 4029 982 l 4029 0 l 1971 0 l 1596 375 l 1596 1378 l 1476 1210 l 553 1210 l 435 1378 l 435 0 l 60 0 z "},"":{"ha":4072,"x_min":60,"x_max":4013,"o":"m 60 375 l 60 1210 q 246 1398 154 1304 q 433 1583 338 1492 l 1965 1583 l 1965 1210 l 601 1210 l 433 1329 l 435 256 l 601 375 l 2476 375 l 2476 0 l 436 0 l 60 375 m 2476 1583 l 3639 1583 l 4013 1210 l 4013 0 l 3639 0 l 3639 1378 l 3519 1210 l 2596 1210 l 2476 1378 l 2476 450 l 2103 450 l 2103 1210 l 2476 1583 z "},"":{"ha":4072,"x_min":60,"x_max":4013,"o":"m 60 375 l 60 1210 q 246 1398 154 1304 q 433 1583 338 1492 l 1965 1583 l 1965 1210 l 601 1210 l 433 1329 l 435 256 l 601 375 l 4013 375 l 4013 0 l 436 0 l 60 375 m 2100 824 l 2100 1210 q 2288 1396 2194 1304 q 2474 1583 2382 1488 l 4006 1583 l 4006 1210 l 2643 1210 q 2558 1269 2600 1239 q 2475 1329 2517 1299 l 2475 706 q 2558 766 2517 736 q 2642 824 2599 796 l 4006 824 l 4006 450 l 2476 450 l 2100 824 z "},"":{"ha":4072,"x_min":60,"x_max":4013,"o":"m 60 375 l 60 1210 l 433 1583 l 1965 1583 l 1965 1210 l 601 1210 q 517 1269 558 1239 q 433 1329 475 1299 l 435 256 l 601 375 l 4013 375 l 4013 0 l 436 0 l 60 375 m 2107 607 l 2107 1583 l 4013 1583 l 4013 1331 l 3844 1213 l 2647 1213 q 2565 1271 2606 1242 q 2482 1329 2524 1300 l 2482 982 l 3553 982 l 3721 864 l 3721 607 l 2107 607 z "},"":{"ha":4072,"x_min":60,"x_max":4013,"o":"m 60 375 l 60 1210 q 246 1398 154 1304 q 433 1583 338 1492 l 1965 1583 l 1965 1210 l 601 1210 l 433 1329 l 435 256 l 601 375 l 4013 375 l 4013 0 l 436 0 l 60 375 m 2108 1589 l 4001 1589 l 4001 1215 l 3407 1215 l 3242 1332 l 3243 713 l 3407 829 l 3838 829 l 4001 713 l 4001 456 l 2108 456 l 2108 829 l 2704 829 l 2868 713 l 2868 1332 q 2786 1274 2828 1303 q 2704 1215 2744 1246 l 2272 1215 l 2108 1333 l 2108 1589 z "},"":{"ha":4086,"x_min":60,"x_max":4026,"o":"m 60 375 l 60 1210 l 433 1583 l 1965 1583 l 1965 1210 l 601 1210 q 517 1269 558 1239 q 433 1329 475 1299 l 435 256 l 601 375 l 2499 375 l 2497 0 l 436 0 l 60 375 m 2331 1583 l 2496 1467 l 2496 979 l 3488 979 l 3653 861 l 3653 1583 l 4026 1583 l 4026 0 l 3817 0 l 3653 118 l 3653 604 l 2660 604 l 2496 722 l 2496 450 l 2121 450 l 2121 1583 l 2331 1583 z "},"":{"ha":4090,"x_min":60,"x_max":4031,"o":"m 60 1210 l 433 1583 l 1965 1583 l 1965 1210 l 601 1210 q 517 1269 558 1239 q 433 1329 475 1299 l 435 256 l 601 375 l 2499 375 l 2497 0 l 436 0 l 60 375 l 60 1210 m 2332 1583 l 2496 1467 l 2496 860 l 2657 974 l 3232 974 l 3586 1583 l 4031 1583 q 3916 1385 3975 1483 q 3797 1188 3857 1286 q 3678 990 3738 1089 q 3563 792 3618 892 q 3796 397 3679 593 q 4028 0 3913 200 l 3586 0 q 3378 358 3482 181 q 3169 715 3275 536 q 3088 658 3128 688 q 3007 600 3047 628 l 2496 600 l 2496 565 l 2333 450 l 2121 450 l 2121 1583 l 2332 1583 z "},"":{"ha":4092,"x_min":60,"x_max":4032,"o":"m 60 1210 q 246 1398 154 1304 q 433 1583 338 1492 l 1965 1583 l 1965 1210 l 601 1210 l 433 1329 l 435 256 l 601 375 l 4032 375 l 4032 0 l 436 0 l 60 375 l 60 1210 m 2121 824 l 2121 1583 l 2496 1583 l 2496 654 l 2646 824 l 3869 824 q 3951 767 3911 797 q 4032 708 3992 738 l 4032 450 l 2501 450 l 2121 824 z "},"":{"ha":4088,"x_min":60,"x_max":4028,"o":"m 60 1210 l 433 1583 l 1965 1583 l 1965 1210 l 601 1210 q 517 1269 558 1239 q 433 1329 475 1299 l 435 256 l 601 375 l 2499 375 l 2497 0 l 436 0 l 60 375 l 60 1210 m 2642 1583 l 3014 949 l 3140 949 l 3513 1583 l 4028 1583 l 4028 0 l 3818 0 q 3785 24 3811 6 q 3731 64 3760 43 q 3679 101 3703 85 q 3653 118 3656 118 l 3653 1074 l 3363 576 l 2790 576 l 2497 1082 l 2497 565 q 2416 507 2457 536 q 2333 450 2375 478 l 2122 450 l 2122 1583 l 2642 1583 z "},"":{"ha":4088,"x_min":60,"x_max":4028,"o":"m 433 1583 l 1965 1583 l 1965 1210 l 601 1210 q 517 1269 558 1239 q 433 1329 475 1299 q 435 792 435 1058 q 435 256 435 526 l 601 375 l 2499 375 l 2497 0 l 436 0 l 60 375 l 60 1210 l 433 1583 m 2122 1583 l 3385 1583 l 3653 1126 l 3653 1583 l 4028 1583 l 4028 0 l 3815 0 l 3653 117 l 3653 374 l 3167 1210 l 2658 1210 l 2497 1325 l 2497 565 l 2338 450 l 2122 450 l 2122 1583 z "},"":{"ha":4092,"x_min":60,"x_max":4032,"o":"m 60 375 l 60 1210 l 433 1583 l 1965 1583 l 1965 1210 l 601 1210 q 517 1269 558 1239 q 433 1329 475 1299 l 435 256 l 601 375 l 4032 375 l 4032 0 l 436 0 l 60 375 m 2121 824 l 2121 1210 l 2496 1583 l 3658 1583 l 4032 1210 l 4032 824 l 3658 450 l 2496 450 l 2121 824 m 2496 1378 l 2496 656 l 2615 824 l 3539 824 l 3658 656 l 3658 1378 l 3539 1210 l 2615 1210 l 2496 1378 z "},"":{"ha":4042,"x_min":60,"x_max":3982,"o":"m 433 1583 l 1965 1583 l 1965 1210 l 601 1210 q 517 1269 558 1239 q 433 1329 475 1299 l 435 256 l 601 375 l 3288 375 l 3288 0 l 436 0 l 60 375 l 60 1210 l 433 1583 m 2076 994 l 2076 1210 l 2525 1583 l 3982 1583 l 3982 1210 l 3276 1210 l 3276 567 l 3113 450 l 2903 450 l 2903 1210 l 2597 1210 l 2451 1088 l 2451 994 l 2076 994 z "},"":{"ha":4092,"x_min":60,"x_max":4032,"o":"m 60 1210 q 246 1398 154 1304 q 433 1583 338 1492 l 1965 1583 l 1965 1210 l 601 1210 l 433 1329 l 435 256 l 601 375 l 4032 375 l 4032 0 l 436 0 l 60 375 l 60 1210 m 2121 824 l 2121 1583 l 2332 1583 l 2496 1467 l 2496 708 q 2576 768 2532 740 q 2660 824 2619 796 l 3490 824 l 3653 710 l 3653 1467 l 3817 1583 l 4026 1583 l 4026 450 l 2496 450 l 2121 824 z "},"":{"ha":4072,"x_min":60,"x_max":4013,"o":"m 2103 450 l 2103 1210 l 2476 1583 l 3639 1583 l 4013 1210 l 4013 0 l 3639 0 l 3639 1378 l 3519 1210 l 2596 1210 l 2476 1378 l 2476 450 l 2103 450 m 60 1210 l 433 1583 l 1965 1583 l 1965 1331 l 1797 1213 l 600 1213 q 517 1271 558 1242 q 435 1329 476 1300 l 435 982 l 1506 982 l 1674 864 l 1674 607 l 600 607 l 435 725 l 435 256 l 603 375 l 2308 375 l 2475 256 l 2475 0 l 60 0 l 60 1210 z "},"":{"ha":4065,"x_min":60,"x_max":4006,"o":"m 2100 1210 l 2474 1583 l 4006 1583 l 4006 1210 l 2643 1210 q 2558 1269 2600 1239 q 2475 1329 2517 1299 l 2475 706 l 2642 824 l 4006 824 l 4006 450 l 2476 450 l 2100 824 l 2100 1210 m 60 1210 l 433 1583 l 1965 1583 l 1965 1331 l 1797 1213 l 600 1213 q 517 1271 558 1242 q 435 1329 476 1300 l 435 982 l 1506 982 l 1674 864 l 1674 607 l 600 607 l 435 725 l 435 256 l 603 375 l 3839 375 l 4006 256 l 4006 0 l 60 0 l 60 1210 z "},"":{"ha":4072,"x_min":60,"x_max":4013,"o":"m 4013 1583 l 4013 1331 l 3844 1213 l 2647 1213 q 2565 1271 2606 1242 q 2482 1329 2524 1300 l 2482 982 l 3553 982 l 3721 864 l 3721 607 l 2107 607 l 2107 1583 l 4013 1583 m 60 1210 l 433 1583 l 1965 1583 l 1965 1331 l 1797 1213 l 600 1213 q 517 1271 558 1242 q 435 1329 476 1300 l 435 982 l 1506 982 l 1674 864 l 1674 607 l 600 607 l 435 725 l 435 256 l 603 375 l 3846 375 l 4013 256 l 4013 0 l 60 0 l 60 1210 z "},"":{"ha":4061,"x_min":60,"x_max":4001,"o":"m 2108 1333 l 2108 1589 l 4001 1589 l 4001 1215 l 3407 1215 l 3242 1332 l 3242 713 l 3407 829 l 3838 829 l 4001 713 l 4001 456 l 2108 456 l 2108 829 l 2704 829 l 2868 713 l 2868 1332 l 2704 1215 l 2272 1215 l 2108 1333 m 60 1210 l 433 1583 l 1965 1583 l 1965 1331 l 1797 1213 l 600 1213 q 517 1271 558 1242 q 435 1329 476 1300 l 435 982 l 1506 982 l 1674 864 l 1674 607 l 600 607 l 435 725 l 435 256 l 603 375 l 3835 375 q 3917 315 3876 344 q 4001 256 3958 285 l 4001 0 l 60 0 l 60 1210 z "},"":{"ha":4086,"x_min":60,"x_max":4026,"o":"m 2121 1583 l 2331 1583 l 2496 1467 l 2496 979 l 3488 979 l 3653 861 l 3653 1583 l 4026 1583 l 4026 0 l 3817 0 l 3653 118 l 3653 604 l 2660 604 l 2496 722 l 2496 450 l 2121 450 l 2121 1583 m 60 1210 l 433 1583 l 1965 1583 l 1965 1331 l 1797 1213 l 600 1213 q 517 1271 558 1242 q 435 1329 476 1300 l 435 982 l 1506 982 l 1674 864 l 1674 607 l 600 607 l 435 725 l 435 256 l 603 375 l 2331 375 q 2413 315 2372 344 q 2497 256 2454 285 l 2497 0 l 60 0 l 60 1210 z "},"":{"ha":4089,"x_min":60,"x_max":4029,"o":"m 2121 1583 l 2332 1583 l 2496 1467 l 2496 860 l 2657 974 l 3232 974 l 3586 1583 l 4029 1583 q 3796 1188 3911 1385 q 3563 792 3681 990 l 4028 0 l 3586 0 l 3169 715 q 3088 658 3129 688 q 3007 600 3047 629 l 2496 600 l 2496 565 l 2333 450 l 2121 450 l 2121 1583 m 60 1210 l 433 1583 l 1965 1583 l 1965 1331 l 1797 1213 l 600 1213 q 517 1271 558 1242 q 435 1329 476 1300 l 435 982 l 1506 982 l 1674 864 l 1674 607 l 600 607 l 435 725 l 435 256 l 603 375 l 2338 375 q 2420 315 2379 344 q 2504 256 2461 285 l 2504 0 l 60 0 l 60 1210 z "},"":{"ha":4092,"x_min":60,"x_max":4032,"o":"m 2121 1583 l 2496 1583 l 2496 654 l 2646 824 l 3869 824 l 4032 708 l 4032 450 l 2501 450 l 2121 824 l 2121 1583 m 60 1210 l 433 1583 l 1965 1583 l 1965 1331 l 1797 1213 l 600 1213 q 517 1271 558 1242 q 435 1329 476 1300 l 435 982 l 1506 982 l 1674 864 l 1674 607 l 600 607 l 435 725 l 435 256 l 603 375 l 3865 375 l 4032 256 l 4032 0 l 60 0 l 60 1210 z "},"":{"ha":4088,"x_min":60,"x_max":4028,"o":"m 2642 1583 l 3014 949 l 3140 949 l 3513 1583 l 4028 1583 l 4028 0 l 3818 0 q 3785 24 3811 6 q 3731 64 3760 43 q 3679 101 3703 85 q 3653 118 3656 118 l 3653 1074 q 3510 824 3581 949 q 3363 576 3440 699 l 2790 576 l 2497 1082 l 2497 565 l 2335 450 l 2122 450 l 2122 1583 l 2642 1583 m 60 1210 l 433 1583 l 1965 1583 l 1965 1331 l 1797 1213 l 600 1213 q 517 1271 558 1242 q 435 1329 476 1300 l 435 982 l 1506 982 l 1674 864 l 1674 607 l 600 607 l 435 725 l 435 256 l 603 375 l 2336 375 q 2419 315 2378 344 q 2503 256 2460 285 l 2503 0 l 60 0 l 60 1210 z "},"":{"ha":4088,"x_min":60,"x_max":4028,"o":"m 433 1583 l 1965 1583 l 1965 1331 l 1797 1213 l 600 1213 q 517 1271 558 1242 q 435 1329 476 1300 l 435 982 l 1506 982 l 1674 864 l 1674 607 l 600 607 l 435 725 l 435 256 l 603 375 l 2338 375 q 2420 315 2379 344 q 2504 256 2461 285 l 2504 0 l 60 0 l 60 1210 l 433 1583 m 3385 1583 l 3653 1126 l 3653 1583 l 4028 1583 l 4028 0 l 3815 0 l 3653 117 l 3653 374 l 3167 1210 l 2658 1210 l 2497 1325 l 2497 565 l 2336 450 l 2122 450 l 2122 1583 l 3385 1583 z "},"":{"ha":4092,"x_min":60,"x_max":4032,"o":"m 2121 824 l 2121 1210 l 2496 1583 l 3658 1583 l 4032 1210 l 4032 824 l 3658 450 l 2496 450 l 2121 824 m 2496 1378 l 2496 656 l 2615 824 l 3539 824 l 3658 656 l 3658 1378 l 3539 1210 l 2615 1210 l 2496 1378 m 60 1210 l 433 1583 l 1965 1583 l 1965 1331 l 1797 1213 l 600 1213 q 517 1271 558 1242 q 435 1329 476 1300 l 435 982 l 1506 982 l 1674 864 l 1674 607 l 600 607 l 435 725 l 435 256 l 603 375 l 3865 375 q 3948 315 3907 344 q 4032 256 3989 285 l 4032 0 l 60 0 l 60 1210 z "},"":{"ha":4042,"x_min":60,"x_max":3982,"o":"m 2525 1583 l 3982 1583 l 3982 1210 l 3276 1210 l 3276 567 l 3113 450 l 2903 450 l 2903 1210 l 2597 1210 l 2451 1088 l 2451 994 l 2076 994 l 2076 1210 l 2525 1583 m 60 1210 l 433 1583 l 1965 1583 l 1965 1331 l 1797 1213 l 600 1213 q 517 1271 558 1242 q 435 1329 476 1300 l 435 982 l 1506 982 l 1674 864 l 1674 607 l 600 607 l 435 725 l 435 256 l 603 375 l 3114 375 l 3282 256 l 3282 0 l 60 0 l 60 1210 z "},"":{"ha":4086,"x_min":60,"x_max":4026,"o":"m 2121 824 l 2121 1583 l 2332 1583 l 2496 1467 l 2496 708 l 2658 824 l 3490 824 l 3653 710 l 3653 1467 l 3817 1583 l 4026 1583 l 4026 450 l 2496 450 l 2121 824 m 60 1210 l 433 1583 l 1965 1583 l 1965 1331 l 1797 1213 l 600 1213 q 517 1271 558 1242 q 435 1329 476 1300 l 435 982 l 1506 982 l 1674 864 l 1674 607 l 600 607 l 435 725 l 435 256 l 603 375 l 3860 375 l 4026 256 l 4026 0 l 60 0 l 60 1210 z "},"":{"ha":2022,"x_min":60,"x_max":1963,"o":"m 60 0 l 60 1210 l 429 1583 l 1963 1583 l 1963 1328 l 1794 1210 l 600 1210 l 435 1328 l 435 858 q 516 919 475 889 q 600 976 557 949 l 1674 976 l 1674 0 l 1467 0 l 1299 118 l 1299 601 l 435 601 l 435 118 l 267 0 l 60 0 z "},"":{"ha":2974,"x_min":60,"x_max":2914,"o":"m 60 1210 l 429 1583 l 2914 1583 l 2914 1328 l 2747 1210 l 2210 1210 l 2210 117 l 2044 0 l 1835 0 l 1835 1210 l 600 1210 l 435 1328 l 435 858 q 516 919 475 889 q 600 976 557 949 l 1674 976 l 1674 721 l 1506 601 l 435 601 l 435 118 l 267 0 l 60 0 l 60 1210 z "},"":{"ha":3256,"x_min":60,"x_max":3196,"o":"m 60 375 l 60 1210 q 246 1398 154 1304 q 433 1583 338 1492 l 3196 1583 l 3196 1326 l 3031 1210 l 2656 1210 l 2490 1326 l 2490 117 l 2326 0 l 2117 0 l 2117 1326 l 1951 1210 l 601 1210 q 517 1269 558 1239 q 433 1329 475 1299 l 433 906 l 435 256 l 601 375 l 1429 375 q 1510 318 1471 347 q 1590 260 1550 289 l 1590 713 q 1508 653 1550 682 q 1426 596 1467 625 l 876 596 l 876 971 l 1965 971 l 1965 0 l 435 0 l 60 375 z "},"":{"ha":4050,"x_min":60,"x_max":3990,"o":"m 60 375 l 60 1210 q 246 1398 154 1304 q 433 1583 338 1492 l 3990 1583 l 3990 1211 l 2736 375 l 3822 375 l 3990 256 l 3990 0 l 2085 0 l 2085 375 l 3338 1213 l 599 1213 l 433 1329 l 435 256 l 601 375 l 1429 375 q 1510 318 1471 347 q 1590 260 1550 289 l 1590 713 q 1508 653 1550 682 q 1426 596 1467 625 l 876 596 l 876 971 l 1965 971 l 1965 0 l 436 0 l 60 375 z "},"":{"ha":3561,"x_min":60,"x_max":3501,"o":"m 60 1583 l 269 1583 l 435 1467 l 435 979 l 1426 979 l 1590 863 l 1590 1583 l 3500 1583 l 3500 951 l 3274 792 l 3386 714 q 3385 712 3385 713 q 3388 713 3386 711 l 3501 632 l 3501 0 l 1754 0 l 1590 118 l 1590 604 l 599 604 l 435 722 l 435 0 l 60 0 l 60 1583 m 1965 257 q 2049 317 2007 286 q 2133 376 2090 349 l 2958 376 q 3042 317 3000 346 q 3126 256 3085 288 l 3126 607 l 2133 607 q 2049 666 2090 635 q 1965 726 2007 697 l 1965 257 m 1965 1331 l 1965 979 l 2958 979 q 3042 919 3001 950 q 3126 860 3083 889 l 3126 1329 l 2958 1210 l 2133 1210 q 2049 1269 2090 1239 q 1965 1331 2007 1299 z "},"":{"ha":3556,"x_min":60,"x_max":3496,"o":"m 60 0 l 60 1583 l 269 1583 l 435 1467 l 435 979 l 1426 979 l 1592 861 l 1590 1583 l 3119 1583 l 3496 1210 l 3496 375 l 3128 0 l 1754 0 l 1590 118 l 1590 604 l 599 604 l 435 722 l 435 0 l 60 0 l 60 0 m 3289 375 l 3122 493 l 3122 1090 l 3289 1210 l 1965 1210 l 1965 375 l 3289 375 l 3289 375 z "},"":{"ha":3556,"x_min":60,"x_max":3496,"o":"m 60 0 l 60 1583 l 269 1583 l 435 1467 l 435 979 l 1426 979 l 1592 861 l 1590 1467 l 1754 1583 l 3496 1583 l 3496 1331 l 3328 1213 l 2131 1213 q 2047 1271 2089 1242 q 1965 1329 2006 1300 l 1965 982 l 3036 982 l 3204 864 l 3204 607 l 2131 607 l 1965 725 l 1965 256 l 2133 375 l 3325 375 q 3409 316 3368 347 q 3493 256 3450 285 l 3493 0 l 1754 0 l 1590 118 l 1590 604 l 599 604 l 435 722 l 435 0 l 60 0 z "},"":{"ha":3556,"x_min":60,"x_max":3496,"o":"m 269 1583 l 435 1467 l 435 979 l 1426 979 l 1592 861 l 1590 1467 l 1754 1583 l 3496 1583 l 3496 1331 l 3328 1213 l 2131 1213 q 2047 1271 2089 1242 q 1965 1329 2006 1300 l 1965 982 l 3036 982 l 3204 864 l 3204 607 l 2131 607 l 1965 725 l 1965 0 l 1754 0 l 1590 118 l 1590 604 l 599 604 l 435 722 l 435 0 l 60 0 l 60 1583 l 269 1583 z "},"":{"ha":3556,"x_min":60,"x_max":3496,"o":"m 60 375 l 60 1583 l 271 1583 l 435 1467 l 435 258 q 514 319 471 290 q 597 375 557 347 l 1429 375 l 1590 260 l 1590 1467 l 1754 1583 l 3496 1583 l 3496 1331 l 3328 1211 l 2129 1211 l 1965 1328 l 1965 865 q 2047 924 2006 896 q 2129 981 2089 951 l 3036 981 l 3204 863 l 3204 607 l 2131 607 l 1965 724 l 1965 -1 l 1590 -1 l 1590 0 l 433 0 q 247 188 342 96 q 60 375 151 279 z "},"":{"ha":3556,"x_min":60,"x_max":3496,"o":"m 60 1583 l 271 1583 l 435 1467 l 435 258 q 514 319 471 290 q 597 375 557 347 l 1429 375 l 1590 260 l 1590 1467 l 1754 1583 l 3496 1583 l 3496 1331 l 3328 1211 l 2129 1211 l 1965 1328 l 1965 865 q 2047 924 2006 896 q 2129 981 2089 951 l 3036 981 l 3204 863 l 3204 607 l 2131 607 l 1965 724 l 1965 254 l 2133 374 l 3326 374 l 3493 256 l 3493 -1 l 1590 -1 l 1590 0 l 433 0 q 247 188 342 96 q 60 375 151 279 l 60 1583 z "},"":{"ha":3365,"x_min":60,"x_max":3306,"o":"m 508 1583 l 3306 1583 l 3306 1331 l 3138 1213 l 1774 1213 l 1774 982 l 2844 982 l 3013 864 l 3013 607 l 1939 607 q 1857 667 1899 638 q 1774 725 1815 696 l 1774 0 l 1563 0 l 1400 115 l 1400 1210 l 1260 1210 l 1260 117 l 1096 0 l 886 0 l 886 1210 l 581 1210 l 435 1088 l 435 994 l 60 994 l 60 1210 l 508 1583 z "},"":{"ha":3365,"x_min":60,"x_max":3306,"o":"m 60 1210 l 508 1583 l 3306 1583 l 3306 1331 l 3138 1213 l 1774 1213 l 1774 982 l 2844 982 l 3013 864 l 3013 607 l 1939 607 q 1857 667 1899 638 q 1774 725 1815 696 l 1774 256 l 1940 372 l 1942 375 l 3135 375 q 3218 315 3178 347 q 3301 256 3258 283 l 3301 0 l 1400 0 l 1400 1210 l 1260 1210 l 1260 117 l 1096 0 l 886 0 l 886 1210 l 581 1210 l 435 1088 l 435 994 l 60 994 l 60 1210 z "},"":{"ha":3361,"x_min":60,"x_max":3301,"o":"m 1396 0 l 1396 1135 l 1606 1135 l 1769 1017 l 1769 979 l 2763 979 l 2928 861 l 2926 1583 l 3301 1583 l 3301 0 l 3090 0 l 2926 118 l 2926 604 l 1935 604 l 1769 722 l 1769 0 l 1396 0 l 1396 0 m 60 1210 l 508 1583 l 1767 1583 l 1767 1326 l 1601 1210 l 1260 1210 l 1260 117 l 1096 0 l 886 0 l 886 1210 l 581 1210 l 435 1088 l 435 994 l 60 994 l 60 1210 l 60 1210 z "},"":{"ha":3364,"x_min":60,"x_max":3304,"o":"m 1607 1135 l 1769 1018 l 1769 860 q 1850 917 1810 889 q 1931 974 1890 946 l 2507 974 q 2683 1278 2596 1126 q 2861 1583 2771 1431 l 3304 1583 q 3067 1189 3182 1386 q 2836 792 2951 992 q 3075 399 2956 596 q 3301 0 3194 203 l 2861 0 q 2653 358 2757 181 q 2443 715 2550 536 q 2361 659 2403 686 q 2281 600 2319 632 l 1769 600 l 1769 115 q 1689 56 1729 85 q 1608 0 1649 28 l 1396 0 l 1396 1135 l 1607 1135 m 60 994 l 60 1210 l 508 1583 l 1767 1583 l 1767 1326 l 1601 1210 l 1260 1210 l 1260 117 l 1096 0 l 886 0 l 886 1210 l 581 1210 l 435 1088 l 435 994 l 60 994 z "},"":{"ha":3365,"x_min":60,"x_max":3306,"o":"m 508 1583 l 1767 1583 l 1767 1326 l 1601 1210 l 1260 1210 l 1260 117 l 1096 0 l 886 0 l 886 1210 l 581 1210 l 435 1088 l 435 994 l 60 994 l 60 1210 l 508 1583 m 1396 1135 l 1769 1135 l 1769 204 l 1921 375 l 3144 375 q 3228 319 3183 347 q 3306 258 3274 290 l 3306 0 l 1776 0 l 1396 375 l 1396 1135 z "},"":{"ha":3381,"x_min":60,"x_max":3321,"o":"m 1410 760 l 1783 1135 l 2946 1135 l 3321 760 l 3321 375 l 2946 0 l 1783 0 l 1410 374 l 1410 760 l 1410 760 m 508 1583 l 3321 1583 l 3321 1326 l 3156 1210 l 1260 1210 l 1260 117 l 1096 0 l 886 0 l 886 1210 l 581 1210 l 435 1088 l 435 994 l 60 994 l 60 1210 l 508 1583 l 508 1583 m 1783 928 l 1783 206 l 1903 375 l 2826 375 l 2946 206 l 2946 928 l 2826 760 l 1903 760 l 1783 928 l 1783 928 z "},"":{"ha":2656,"x_min":60,"x_max":2596,"o":"m 60 994 l 60 1210 l 508 1583 l 2146 1583 l 2596 1210 l 2596 994 l 2221 994 l 2221 1088 l 2075 1210 l 1769 1210 l 1769 0 l 1560 0 l 1396 117 l 1396 1210 l 1260 1210 l 1260 117 l 1096 0 l 886 0 l 886 1210 l 581 1210 l 435 1088 l 435 994 l 60 994 l 60 994 z "},"":{"ha":3356,"x_min":60,"x_max":3296,"o":"m 1601 1135 l 1765 1018 l 1765 258 l 1929 375 l 2760 375 l 2922 260 l 2922 1467 l 3086 1583 l 3296 1583 l 3296 0 l 1765 0 l 1392 375 l 1392 1135 l 1601 1135 l 1601 1135 m 508 1583 l 1767 1583 l 1767 1326 l 1601 1210 l 1260 1210 l 1260 117 l 1096 0 l 886 0 l 886 1210 l 581 1210 l 435 1088 l 435 994 l 60 994 l 60 1210 l 508 1583 l 508 1583 z "},"":{"ha":3235,"x_min":60,"x_max":3175,"o":"m 60 1210 l 433 1583 l 3175 1583 l 3175 1326 l 3010 1210 l 2635 1210 l 2469 1326 l 2469 117 l 2306 0 l 2096 0 l 2096 1329 l 1932 1213 l 600 1213 q 517 1271 558 1242 q 435 1329 475 1300 l 435 865 q 515 925 475 894 q 597 982 556 956 l 1965 982 l 1965 0 l 60 0 l 60 256 l 228 375 l 1426 375 q 1509 317 1468 350 q 1590 257 1550 285 l 1590 725 q 1508 667 1549 696 q 1426 607 1467 638 l 60 607 l 60 1210 z "},"":{"ha":4074,"x_min":60,"x_max":4014,"o":"m 60 0 l 60 1583 l 1803 1583 l 1969 1465 l 1969 725 l 1803 607 l 1610 607 q 1676 491 1643 549 q 1746 375 1710 433 l 3474 375 q 3558 317 3517 349 q 3639 257 3599 286 l 3639 725 q 3556 667 3597 696 q 3475 607 3515 638 l 2108 607 l 2108 1210 l 2482 1583 l 4014 1583 l 4014 1331 l 3846 1213 l 2649 1213 l 2482 1329 l 2482 867 q 2563 924 2522 894 q 2646 982 2604 954 l 4014 982 l 4014 0 l 1525 0 q 1347 303 1435 151 q 1171 607 1258 454 l 601 607 l 435 726 l 435 117 l 269 0 l 60 0 m 1428 979 q 1511 920 1469 950 q 1594 860 1553 890 l 1594 1329 l 1428 1210 l 601 1210 l 435 1331 l 433 979 l 1428 979 z "},"":{"ha":3556,"x_min":60,"x_max":3496,"o":"m 1322 1583 l 1590 1126 l 1590 1583 l 3496 1583 l 3496 1331 l 3328 1213 l 2131 1213 q 2047 1271 2089 1242 q 1965 1329 2006 1300 l 1965 982 l 3036 982 l 3204 864 l 3204 607 l 2131 607 l 1965 725 l 1965 256 l 2133 374 l 3325 374 l 3492 256 l 3492 0 l 1590 0 l 1590 374 q 1351 794 1475 588 q 1103 1210 1228 1001 l 596 1210 l 435 1325 l 435 117 l 274 0 l 60 0 l 60 1583 l 1322 1583 z "},"":{"ha":3561,"x_min":60,"x_max":3501,"o":"m 60 0 l 60 1583 l 579 1583 l 951 949 l 1078 949 l 1450 1583 l 1590 1585 l 3500 1585 l 3500 951 q 3387 872 3443 911 q 3274 792 3331 832 l 3386 714 l 3386 713 l 3501 632 l 3501 0 l 1756 0 q 1720 24 1746 6 q 1667 63 1694 43 q 1617 100 1640 83 q 1590 118 1594 117 l 1590 1074 l 1300 576 l 728 576 q 581 829 653 703 q 435 1082 510 956 l 435 117 l 271 0 l 60 0 m 2958 979 q 3042 920 3000 950 q 3125 860 3083 890 l 3125 1329 l 2958 1210 l 2132 1210 q 2049 1271 2090 1240 q 1965 1331 2008 1301 l 1964 979 l 2958 979 m 1965 726 l 1965 257 l 2132 376 l 2957 376 q 3040 315 2999 346 q 3125 256 3082 285 l 3125 607 l 2132 607 q 2048 666 2089 635 q 1965 726 2007 697 z "},"":{"ha":3556,"x_min":60,"x_max":3496,"o":"m 579 1583 l 951 949 l 1078 949 l 1450 1583 l 3119 1583 l 3496 1210 l 3496 374 l 3128 0 l 1756 0 l 1590 118 l 1590 1074 l 1300 576 l 728 576 l 435 1082 l 435 117 l 271 0 l 60 0 l 60 1583 l 579 1583 m 1964 1210 l 1964 374 l 3289 374 l 3121 493 l 3121 1090 q 3204 1151 3163 1121 q 3289 1210 3246 1181 l 1964 1210 z "},"":{"ha":3556,"x_min":60,"x_max":3496,"o":"m 60 0 l 60 1583 l 579 1583 l 951 950 l 1078 950 q 1263 1267 1172 1110 q 1450 1585 1354 1425 l 2549 1585 l 3496 1583 l 3496 1332 l 3328 1213 l 2131 1213 q 2047 1271 2089 1242 q 1965 1329 2006 1300 l 1965 982 l 3036 982 l 3204 864 l 3204 608 l 2131 608 q 2047 667 2089 638 q 1965 725 2006 696 l 1965 0 l 1753 0 q 1672 60 1714 32 q 1590 117 1631 88 l 1590 1074 l 1300 576 l 728 576 q 583 830 656 704 q 435 1082 510 956 l 435 117 q 353 60 394 88 q 271 0 311 32 l 60 0 z "},"":{"ha":3556,"x_min":60,"x_max":3496,"o":"m 60 0 l 60 1583 l 579 1583 l 951 949 l 1078 949 l 1450 1583 l 3496 1583 l 3496 1331 l 3328 1213 l 2131 1213 q 2047 1271 2089 1242 q 1965 1329 2006 1300 l 1965 982 l 3036 982 l 3204 864 l 3204 607 l 2131 607 l 1965 725 l 1965 254 q 1997 277 1971 258 q 2053 317 2024 296 q 2106 356 2082 339 q 2133 374 2131 374 l 3325 374 q 3410 315 3368 346 q 3493 256 3451 285 l 3493 0 l 1590 0 l 1590 1074 l 1300 576 l 728 576 q 581 829 653 703 q 435 1082 510 956 l 435 117 l 271 0 l 60 0 z "},"":{"ha":3556,"x_min":60,"x_max":3496,"o":"m 60 0 l 60 1583 l 579 1583 l 951 949 l 1078 949 l 1450 1583 l 1801 1583 l 1965 1467 l 1965 258 q 2046 319 2004 290 q 2128 375 2088 347 l 2960 375 l 3122 260 l 3122 1467 l 3286 1583 l 3496 1583 l 3496 0 l 1756 0 q 1722 24 1747 6 q 1668 63 1696 43 q 1617 100 1640 83 q 1590 118 1594 117 l 1590 1074 l 1300 576 l 728 576 q 581 829 653 703 q 435 1082 510 956 l 435 117 l 271 0 l 60 0 z "},"":{"ha":2542,"x_min":60,"x_max":2482,"o":"m 571 1210 l 946 1583 l 2108 1583 l 2482 1210 l 2482 0 l 2108 0 l 2108 1378 l 1989 1210 l 1065 1210 l 946 1378 l 946 450 l 571 450 l 571 1210 m 60 1583 l 435 1583 l 435 204 l 585 375 l 783 375 q 865 317 826 350 q 946 258 903 283 l 946 0 l 440 0 l 60 375 l 60 1583 z "},"":{"ha":2535,"x_min":60,"x_max":2475,"o":"m 569 1210 q 756 1398 664 1304 q 943 1583 847 1492 l 2475 1583 l 2475 1210 l 1111 1210 q 1028 1271 1071 1242 q 944 1329 986 1300 l 944 706 q 1027 766 986 736 q 1111 824 1068 796 l 2475 824 l 2475 450 l 946 450 l 569 824 l 569 1210 m 60 375 l 60 1583 l 435 1583 l 435 204 l 585 375 l 2313 375 q 2394 317 2356 350 q 2475 258 2432 283 l 2475 0 l 440 0 l 60 375 z "},"":{"ha":2542,"x_min":60,"x_max":2482,"o":"m 576 607 l 576 1583 l 2482 1583 l 2482 1331 l 2314 1213 l 1117 1213 q 1033 1271 1075 1242 q 951 1329 992 1300 l 951 982 l 2022 982 l 2190 864 l 2190 607 l 576 607 m 60 1583 l 435 1583 l 435 204 l 585 375 l 2319 375 q 2401 317 2363 350 q 2482 258 2439 283 l 2482 0 l 440 0 l 60 375 l 60 1583 z "},"":{"ha":2531,"x_min":60,"x_max":2471,"o":"m 1174 829 l 1338 713 l 1338 1332 l 1172 1215 l 742 1215 l 578 1333 l 578 1589 l 2471 1589 l 2471 1215 l 1875 1215 l 1711 1332 l 1711 713 l 1875 829 l 2307 829 l 2471 713 l 2471 456 l 578 456 l 578 829 l 1174 829 m 435 1583 l 435 204 l 585 375 l 2308 375 q 2390 317 2350 347 q 2471 258 2431 288 l 2471 0 l 440 0 l 60 375 l 60 1583 l 435 1583 z "},"":{"ha":2556,"x_min":60,"x_max":2496,"o":"m 590 450 l 590 1583 l 800 1583 l 965 1467 l 965 979 l 1957 979 l 2122 861 l 2121 1583 l 2496 1583 l 2496 0 l 2285 0 l 2121 118 l 2121 604 l 1129 604 l 965 722 l 965 450 l 590 450 m 60 1583 l 435 1583 l 435 204 l 585 375 l 804 375 q 886 317 846 347 q 967 258 926 288 l 967 0 l 440 0 l 60 375 l 60 1583 z "},"":{"ha":2568,"x_min":60,"x_max":2508,"o":"m 600 1583 l 811 1583 l 974 1467 l 974 860 q 1054 917 1014 889 q 1135 974 1094 946 l 1710 974 q 1888 1278 1800 1126 q 2065 1583 1975 1431 l 2508 1583 q 2274 1188 2396 1381 q 2040 792 2153 994 q 2279 399 2160 596 q 2506 0 2399 203 l 2064 0 q 1856 358 1960 181 q 1647 715 1753 536 l 1485 600 l 974 600 l 974 565 q 892 508 932 538 q 811 450 851 479 l 600 450 l 600 1583 m 435 1583 l 435 204 l 585 375 l 814 375 q 896 317 856 347 q 976 258 936 288 l 976 0 l 440 0 l 60 375 l 60 1583 l 435 1583 z "},"":{"ha":2561,"x_min":60,"x_max":2501,"o":"m 60 1583 l 435 1583 l 435 204 l 585 375 l 2339 375 q 2420 317 2382 350 q 2501 258 2458 283 l 2501 0 l 440 0 l 60 375 l 60 1583 m 590 1583 l 965 1583 l 965 654 l 1115 824 l 2339 824 q 2419 765 2381 797 q 2501 708 2458 733 l 2501 450 l 971 450 l 590 824 l 590 1583 z "},"":{"ha":2557,"x_min":60,"x_max":2497,"o":"m 1111 1583 l 1483 949 l 1610 949 l 1982 1583 l 2497 1583 l 2497 0 l 2288 0 q 2253 24 2279 6 q 2200 63 2228 43 q 2149 100 2172 83 q 2122 118 2126 117 l 2122 1074 l 1832 576 l 1260 576 l 967 1082 l 967 565 q 885 506 926 535 q 803 450 843 478 l 592 450 l 592 1583 l 1111 1583 m 435 1583 l 435 204 l 585 375 l 804 375 q 886 317 846 347 q 967 258 926 288 l 967 0 l 440 0 l 60 375 l 60 1583 l 435 1583 z "},"":{"ha":2557,"x_min":60,"x_max":2497,"o":"m 592 1583 l 1854 1583 l 2122 1126 l 2122 1583 l 2497 1583 l 2497 0 l 2285 0 l 2122 117 l 2122 374 l 1635 1210 l 1128 1210 l 965 1325 l 967 565 l 806 450 l 592 450 l 592 1583 m 435 1583 l 435 204 l 585 375 l 813 375 q 894 318 854 349 q 974 258 933 288 l 974 0 l 440 0 l 60 375 l 60 1583 l 435 1583 z "},"":{"ha":2561,"x_min":60,"x_max":2501,"o":"m 965 1583 l 2128 1583 l 2501 1210 l 2501 824 l 2126 450 l 964 450 l 590 824 l 590 1210 l 965 1583 m 60 1583 l 435 1583 l 435 204 l 585 375 l 2339 375 q 2420 317 2382 350 q 2501 258 2458 283 l 2501 0 l 440 0 l 60 375 l 60 1583 m 1083 824 l 2007 824 l 2126 656 l 2126 1378 l 2008 1210 l 1083 1210 l 965 1378 l 965 656 l 1083 824 z "},"":{"ha":2511,"x_min":60,"x_max":2451,"o":"m 60 375 l 60 1583 l 435 1583 l 435 204 l 585 375 l 1593 375 q 1675 317 1635 347 q 1756 258 1715 288 l 1756 0 l 440 0 l 60 375 m 546 994 l 546 1210 q 645 1284 586 1236 q 767 1386 704 1332 q 890 1494 831 1440 q 994 1583 950 1547 l 2451 1583 l 2451 1210 l 1746 1210 l 1746 567 l 1582 450 l 1371 450 l 1371 1210 l 1067 1210 l 919 1088 l 919 994 l 546 994 z "},"":{"ha":2556,"x_min":60,"x_max":2496,"o":"m 435 1583 l 435 204 l 585 375 l 2333 375 q 2415 318 2375 349 q 2496 258 2456 288 l 2496 0 l 440 0 l 60 375 l 60 1583 l 435 1583 m 590 824 l 590 1583 l 801 1583 l 965 1467 l 965 708 q 1044 768 1001 740 q 1128 824 1088 796 l 1960 824 l 2121 710 l 2121 1467 l 2286 1583 l 2496 1583 l 2496 450 l 964 450 l 590 824 z "},"":{"ha":3931,"x_min":60,"x_max":3871,"o":"m 271 1583 l 435 1467 l 435 860 q 515 915 475 888 q 594 974 556 943 l 1171 974 q 1347 1278 1260 1126 q 1525 1583 1435 1431 l 1968 1583 q 1732 1189 1847 1386 q 1501 792 1617 992 q 1624 583 1564 688 q 1746 375 1685 479 l 3332 375 q 3416 317 3375 347 q 3497 257 3457 288 l 3497 725 l 3332 607 l 1967 607 l 1967 1210 l 2340 1583 l 3871 1583 l 3871 1331 l 3703 1213 l 2506 1213 q 2422 1271 2464 1242 q 2340 1329 2381 1300 l 2340 867 q 2422 924 2381 894 q 2504 982 2463 954 l 3871 982 l 3871 0 l 1525 0 q 1317 358 1421 181 q 1108 715 1214 536 q 1026 658 1067 688 q 944 600 985 629 l 435 600 l 435 115 q 353 59 393 89 q 272 0 313 29 l 60 0 l 60 1583 l 271 1583 z "},"":{"ha":3213,"x_min":60,"x_max":3153,"o":"m 60 0 l 60 1583 l 271 1583 l 435 1467 l 435 860 q 515 915 475 888 q 594 974 556 943 l 1171 974 q 1347 1278 1260 1126 q 1525 1583 1435 1431 l 3153 1583 l 3153 1326 l 2988 1210 l 2613 1210 l 2447 1326 l 2447 117 l 2283 0 l 2074 0 l 2074 1325 q 1992 1267 2033 1296 q 1911 1210 1951 1239 l 1747 1210 q 1624 1001 1685 1106 q 1501 792 1564 896 q 1739 399 1619 594 q 1965 0 1858 203 l 1525 0 q 1317 358 1421 181 q 1108 715 1214 536 q 1026 658 1067 688 q 944 600 985 629 l 435 600 l 435 115 q 353 59 393 89 q 272 0 313 29 l 60 0 z "},"":{"ha":3557,"x_min":60,"x_max":3497,"o":"m 60 1583 l 269 1583 l 435 1467 l 435 979 l 1426 979 l 1592 861 l 1592 1583 l 1801 1583 l 1965 1468 l 1965 258 l 2129 374 l 2961 374 l 3122 260 l 3122 1467 l 3286 1583 l 3497 1583 l 3497 0 l 1963 0 l 1590 372 l 1590 604 l 599 604 l 435 722 l 435 0 l 60 0 l 60 1583 l 60 1583 z "},"":{"ha":3563,"x_min":60,"x_max":3503,"o":"m 60 1583 l 269 1583 l 435 1467 l 435 979 l 1426 979 l 1590 863 l 1592 863 l 1590 1583 l 3333 1583 l 3500 1465 l 3500 725 l 3333 607 l 3143 607 l 3281 372 l 3503 372 l 3503 0 l 3058 0 q 2880 303 2968 151 q 2704 607 2792 454 l 2133 607 l 1965 726 l 1965 117 l 1801 0 l 1590 0 l 1590 606 l 599 606 l 435 722 l 435 0 l 60 0 l 60 1583 m 1965 979 l 2958 979 l 3126 860 l 3126 1329 l 2958 1210 l 2133 1210 q 2049 1269 2090 1239 q 1965 1331 2007 1299 l 1965 979 z "},"":{"ha":3560,"x_min":60,"x_max":3500,"o":"m 269 1583 l 435 1467 l 435 979 l 1426 979 l 1592 861 l 1590 1583 l 3333 1583 l 3500 1465 l 3500 725 l 3333 607 l 2133 607 l 1965 726 l 1965 117 l 1801 0 l 1590 0 l 1590 606 l 599 606 l 435 722 l 435 0 l 60 0 l 60 1583 l 269 1583 m 2958 979 l 3126 860 l 3126 1329 l 2958 1210 l 2133 1210 q 2049 1269 2090 1239 q 1965 1331 2007 1299 l 1965 979 l 2958 979 z "},"":{"ha":3561,"x_min":60,"x_max":3501,"o":"m 60 1583 l 269 1583 l 435 1467 l 435 979 l 1426 979 l 1592 861 l 1592 1210 l 1965 1583 l 3128 1583 l 3501 1210 l 3501 375 l 3128 0 l 1965 0 l 1590 375 l 1590 604 l 599 604 l 435 722 l 435 0 l 60 0 l 60 1583 l 60 1583 m 2085 374 l 3008 374 l 3128 206 l 3128 1378 l 3008 1210 l 2085 1210 l 1965 1378 l 1965 206 l 2085 374 l 2085 374 z "},"":{"ha":3561,"x_min":60,"x_max":3501,"o":"m 60 0 l 60 1583 l 269 1583 l 435 1467 l 435 979 l 1426 979 l 1592 861 l 1590 1583 l 1965 1583 l 1965 204 l 2115 375 l 3339 375 q 3420 317 3382 350 q 3501 258 3458 283 l 3501 0 l 1971 0 l 1590 375 l 1590 604 l 599 604 l 435 722 l 435 0 l 60 0 z "},"":{"ha":3560,"x_min":60,"x_max":3500,"o":"m 60 0 l 60 1583 l 269 1583 l 435 1467 l 435 979 l 1426 979 l 1592 861 l 1592 1583 l 1803 1583 l 1965 1468 l 1965 860 q 2046 917 2006 889 q 2126 975 2086 946 l 2701 975 q 2879 1280 2792 1128 q 3057 1585 2967 1432 l 3500 1585 q 3272 1185 3389 1382 q 3032 792 3154 988 q 3270 399 3151 596 q 3497 0 3389 203 l 3057 0 l 2761 511 q 2733 561 2747 533 q 2704 617 2719 589 q 2673 670 2689 644 q 2639 717 2657 696 q 2558 658 2600 685 q 2476 600 2517 631 l 1965 600 l 1965 0 l 1754 0 l 1590 118 l 1590 604 l 599 604 l 435 722 l 435 0 l 60 0 z "},"":{"ha":3556,"x_min":60,"x_max":3496,"o":"m 269 1583 l 435 1467 l 435 979 l 1426 979 l 1592 861 l 1592 1583 l 1801 1583 l 1965 1467 l 1965 979 l 2957 979 l 3122 861 l 3122 1583 l 3496 1583 l 3496 0 l 3286 0 l 3122 118 l 3122 606 l 2131 606 l 1965 722 l 1965 0 l 1754 0 l 1590 118 l 1590 604 l 599 604 l 435 722 l 435 0 l 60 0 l 60 1583 l 269 1583 l 269 1583 z "},"!":{"ha":460,"x_min":60,"x_max":400,"o":"m 60 431 l 60 1586 l 400 1586 l 400 431 l 60 431 l 60 431 m 60 11 l 60 351 l 400 351 l 400 11 l 60 11 l 60 11 z "},"\"":{"ha":1125,"x_min":60,"x_max":1065,"o":"m 307 1260 l 124 1260 l 124 1586 l 549 1586 l 549 1117 l 200 917 l 60 1118 l 307 1260 l 307 1260 m 828 1260 l 643 1260 l 643 1586 l 1065 1586 l 1065 1117 l 718 917 l 579 1118 l 828 1260 l 828 1260 z "},"#":{"ha":1444,"x_min":60,"x_max":1385,"o":"m 60 1207 l 158 1207 q 230 1124 194 1167 q 303 1043 265 1082 l 303 1588 l 442 1588 l 644 1388 l 644 1207 l 813 1207 l 813 1588 l 1153 1588 l 1153 1042 q 1220 1124 1186 1083 q 1286 1207 1254 1164 l 1385 1207 l 1385 867 l 1153 867 l 1153 756 l 1385 756 l 1385 414 l 1288 414 q 1221 499 1256 458 q 1153 582 1186 539 l 1153 13 l 1015 13 l 813 228 l 813 414 l 644 414 l 644 13 l 303 13 l 303 579 q 227 499 264 540 q 156 414 190 457 l 60 414 l 60 756 l 303 756 l 303 867 l 60 867 l 60 1207 m 644 756 l 813 756 l 813 867 l 644 867 l 644 756 z "},"$":{"ha":1278,"x_min":60,"x_max":1218,"o":"m 60 924 l 60 1354 l 468 1586 l 468 1765 l 808 1765 l 808 1586 l 1218 1354 l 1218 1067 l 878 1067 l 878 1160 l 696 1261 l 582 1261 l 400 1160 l 400 1128 q 435 1107 401 1126 q 522 1056 468 1088 q 646 985 576 1025 q 789 904 715 946 q 934 822 863 863 q 1065 749 1006 782 q 1165 692 1124 715 q 1218 663 1207 669 l 1218 263 l 808 29 l 808 -156 l 468 -156 l 468 13 l 64 13 l 64 353 l 696 353 l 878 458 l 60 924 z "},"%":{"ha":2072,"x_min":60,"x_max":2013,"o":"m 2013 171 l 1715 3 l 1522 3 l 1225 171 l 1225 639 l 1522 807 l 1715 807 l 2010 639 l 2013 171 l 2013 171 m 1672 446 l 1629 467 l 1606 467 l 1565 446 l 1565 367 l 1608 344 l 1629 344 l 1672 367 l 1672 446 l 1672 446 m 550 779 l 356 779 l 60 950 l 60 1418 l 356 1586 l 550 1586 l 846 1418 l 846 950 l 550 779 l 550 779 m 504 1222 l 464 1246 l 442 1246 l 400 1222 l 400 1143 l 442 1121 l 464 1121 l 504 1143 l 504 1222 l 504 1222 m 1594 1588 l 778 1 l 436 1 l 1254 1588 l 1594 1588 l 1594 1588 z "},"&":{"ha":1618,"x_min":60,"x_max":1558,"o":"m 60 625 l 357 793 l 231 868 l 231 1332 l 682 1588 l 1275 1588 l 1275 922 l 1047 796 l 1388 600 l 1388 339 l 1558 339 l 1558 -1 l 1388 -1 l 1388 -172 l 1047 -172 l 1047 -1 l 493 -1 l 60 239 l 60 625 l 60 625 m 411 432 l 582 339 l 1047 339 l 1047 403 l 703 599 l 411 432 l 411 432 m 571 1133 l 571 1065 l 704 990 l 933 1122 l 933 1247 l 772 1247 l 571 1133 l 571 1133 z "},"'":{"ha":608,"x_min":60,"x_max":549,"o":"m 549 1586 l 549 1117 l 200 917 l 60 1118 l 307 1260 l 124 1260 l 124 1586 l 549 1586 l 549 1586 z "},"(":{"ha":932,"x_min":60,"x_max":872,"o":"m 60 657 l 60 953 q 124 1269 60 1121 q 298 1527 188 1417 q 556 1701 408 1638 q 872 1765 704 1765 l 872 1428 q 689 1390 775 1428 q 539 1289 603 1353 q 438 1139 475 1225 q 400 956 400 1053 l 400 656 q 437 472 400 557 q 538 322 474 386 q 688 220 603 257 q 872 183 774 183 l 872 -156 q 556 -92 704 -156 q 298 83 408 -28 q 124 341 188 193 q 60 657 60 489 z "},")":{"ha":932,"x_min":60,"x_max":872,"o":"m 60 1765 q 376 1701 228 1765 q 634 1527 524 1638 q 808 1269 744 1417 q 872 953 872 1121 l 872 657 q 808 341 872 489 q 634 83 744 193 q 376 -92 524 -28 q 60 -156 228 -156 l 60 183 q 243 220 157 183 q 394 322 329 257 q 495 472 458 386 q 532 656 532 557 l 532 956 q 494 1139 532 1053 q 393 1289 457 1225 q 243 1390 329 1353 q 60 1428 157 1428 l 60 1765 z "},"*":{"ha":996,"x_min":60,"x_max":936,"o":"m 367 1497 l 367 1600 l 629 1600 l 629 1497 l 936 1497 l 936 1235 l 807 1235 l 929 1154 l 929 957 l 664 957 l 664 1010 l 514 1093 l 482 1093 l 332 1011 l 332 957 l 67 957 l 67 1157 l 185 1235 l 60 1235 l 60 1497 l 367 1497 l 367 1497 z "},"+":{"ha":1032,"x_min":60,"x_max":972,"o":"m 60 985 l 232 985 q 290 949 260 967 q 346 910 319 931 l 346 1271 l 686 1271 l 686 908 q 744 946 714 928 q 803 985 775 964 l 972 985 l 972 644 l 686 644 l 686 358 l 346 358 l 346 644 l 60 644 l 60 985 z "},",":{"ha":608,"x_min":60,"x_max":549,"o":"m 549 353 l 549 -131 l 200 -328 l 60 -126 l 307 13 l 124 13 l 124 353 l 549 353 l 549 353 z "},"-":{"ha":1032,"x_min":60,"x_max":972,"o":"m 60 635 l 60 975 l 972 975 l 972 635 l 60 635 l 60 635 z "},".":{"ha":460,"x_min":60,"x_max":400,"o":"m 60 15 l 60 356 l 400 356 l 400 15 l 60 15 l 60 15 z "},"/":{"ha":1278,"x_min":60,"x_max":1218,"o":"m 1218 1601 l 401 15 l 60 15 l 878 1601 l 1218 1601 l 1218 1601 z "},":":{"ha":460,"x_min":60,"x_max":400,"o":"m 60 660 l 60 1000 l 400 1000 l 400 660 l 60 660 l 60 660 m 60 15 l 60 356 l 400 356 l 400 15 l 60 15 l 60 15 z "},";":{"ha":608,"x_min":60,"x_max":549,"o":"m 549 353 l 549 -131 l 200 -328 l 60 -126 l 307 13 l 124 13 l 124 353 l 549 353 l 549 353 m 131 657 l 131 999 l 471 999 l 471 657 l 131 657 l 131 657 z "},"<":{"ha":1093,"x_min":60,"x_max":1033,"o":"m 60 601 l 60 1007 l 497 1260 l 1033 1260 l 1033 918 l 582 918 l 400 817 l 400 793 l 582 692 l 1033 692 l 1033 351 l 497 351 l 60 601 l 60 601 z "},"=":{"ha":1032,"x_min":60,"x_max":972,"o":"m 60 435 l 60 775 l 972 775 l 972 435 l 60 435 l 60 435 m 60 867 l 60 1207 l 972 1207 l 972 867 l 60 867 l 60 867 z "},">":{"ha":1093,"x_min":60,"x_max":1033,"o":"m 596 1260 l 1033 1007 l 1033 601 l 596 351 l 60 351 l 60 692 l 511 692 l 693 793 l 693 817 l 511 918 l 60 918 l 60 1260 l 596 1260 l 596 1260 z "},"?":{"ha":1278,"x_min":60,"x_max":1218,"o":"m 60 1600 l 778 1600 l 1218 1353 l 1218 964 l 710 674 l 710 438 l 368 438 l 368 867 l 879 1157 l 697 1260 l 400 1257 l 400 1049 l 60 1049 l 60 1600 l 60 1600 m 710 353 l 710 13 l 368 13 l 368 353 l 710 353 l 710 353 z "},"@":{"ha":1979,"x_min":60,"x_max":1919,"o":"m 60 413 l 60 1203 l 765 1601 l 1919 1601 l 1919 414 l 1169 414 l 1169 857 l 989 857 l 890 803 l 989 749 l 1115 749 l 1115 414 l 890 414 l 467 656 l 467 950 l 901 1197 l 1511 1197 l 1511 756 l 1579 756 l 1579 1261 l 853 1261 l 400 1004 l 400 613 l 853 353 l 1111 353 l 1111 13 l 765 13 l 60 413 l 60 413 z "},"[":{"ha":631,"x_min":60,"x_max":571,"o":"m 60 -158 l 60 1769 l 571 1769 l 571 1429 l 400 1429 l 400 183 l 571 183 l 571 -158 l 60 -158 l 60 -158 z "},"\\":{"ha":1278,"x_min":60,"x_max":1218,"o":"m 1218 15 l 878 15 l 60 1601 l 401 1601 l 1218 15 l 1218 15 z "},"]":{"ha":631,"x_min":60,"x_max":571,"o":"m 571 1769 l 571 -158 l 60 -158 l 60 183 l 231 183 l 231 1429 l 60 1429 l 60 1769 l 571 1769 l 571 1769 z "},"^":{"ha":982,"x_min":60,"x_max":922,"o":"m 60 957 l 60 1404 l 407 1604 l 575 1604 l 922 1404 l 922 957 l 657 957 l 657 1254 l 507 1339 l 475 1339 l 325 1257 l 325 957 l 60 957 l 60 957 z "},"_":{"ha":1447,"x_min":60,"x_max":1388,"o":"m 60 -262 l 60 0 l 1388 0 l 1388 -262 l 60 -262 l 60 -262 z "},"`":{"ha":644,"x_min":50,"x_max":582,"o":"m 382 1982 l 582 1657 l 326 1657 l 50 1982 l 382 1982 l 382 1982 z "},"{":{"ha":1139,"x_min":60,"x_max":1079,"o":"m 60 975 l 267 975 l 267 1543 l 654 1765 l 1079 1765 l 1079 1428 l 750 1428 l 607 1346 l 607 265 l 750 183 l 1079 183 l 1079 -156 l 654 -156 l 267 67 l 267 635 l 60 635 l 60 975 l 60 975 z "},"|":{"ha":460,"x_min":60,"x_max":400,"o":"m 60 -156 l 60 1761 l 400 1761 l 400 -156 l 60 -156 l 60 -156 z "},"}":{"ha":1139,"x_min":60,"x_max":1079,"o":"m 60 183 l 386 183 l 532 265 l 532 1346 l 386 1428 l 60 1428 l 60 1765 l 485 1765 l 872 1543 l 872 975 l 1079 975 l 1079 635 l 872 635 l 872 67 l 485 -156 l 60 -156 l 60 183 l 60 183 z "},"~":{"ha":1321,"x_min":60,"x_max":1261,"o":"m 1261 1139 l 1261 688 l 825 442 l 489 442 l 489 753 l 400 703 l 400 456 l 60 456 l 60 903 l 486 1143 l 829 1143 l 829 835 l 921 886 l 921 1139 l 1261 1139 l 1261 1139 z "},"®":{"ha":885,"x_min":60,"x_max":825,"o":"m 60 1207 q 90 1354 60 1286 q 174 1472 121 1422 q 296 1551 226 1522 q 443 1579 365 1579 q 592 1551 522 1579 q 713 1472 661 1522 q 795 1354 765 1422 q 825 1207 825 1286 q 795 1058 825 1126 q 714 938 765 989 q 592 859 663 888 q 443 831 522 831 q 294 860 364 831 q 173 940 225 889 q 90 1059 121 990 q 60 1207 60 1128 m 446 910 q 559 933 507 910 q 649 997 611 957 q 708 1091 686 1038 q 729 1204 729 1144 q 708 1320 729 1265 q 649 1416 688 1375 q 558 1481 611 1457 q 443 1504 506 1504 q 329 1481 382 1504 q 238 1416 276 1457 q 177 1321 199 1375 q 156 1207 156 1267 q 177 1090 156 1144 q 238 996 199 1036 q 330 933 276 956 q 446 910 383 910 m 283 1410 l 557 1410 l 639 1328 l 639 1168 l 575 1153 l 639 1107 l 639 1024 l 621 1024 q 548 1078 585 1051 q 474 1131 511 1104 l 367 1107 l 367 1024 l 283 1024 l 283 1410 z "},"©":{"ha":1493,"x_min":60,"x_max":1433,"o":"m 60 796 q 113 1067 60 939 q 260 1290 167 1194 q 478 1440 353 1385 q 750 1496 604 1496 q 1019 1440 894 1496 q 1236 1289 1144 1385 q 1381 1066 1328 1193 q 1433 796 1433 939 q 1381 524 1433 651 q 1238 300 1329 396 q 1021 148 1146 204 q 750 92 896 92 q 564 117 653 92 q 398 189 475 143 q 259 299 321 235 q 153 442 197 364 q 84 610 108 521 q 60 796 60 700 m 750 185 q 981 235 876 185 q 1161 369 1086 285 q 1278 563 1236 453 q 1319 796 1319 674 q 1278 1026 1319 917 q 1160 1220 1236 1136 q 980 1353 1085 1304 q 750 1403 875 1403 q 516 1353 622 1403 q 333 1219 410 1304 q 215 1024 257 1135 q 174 789 174 913 q 217 557 174 667 q 336 365 260 447 q 519 233 413 282 q 750 185 625 185 m 342 1064 l 517 1239 l 1094 1239 l 1094 1064 l 919 1064 l 919 1143 l 856 1064 l 588 1064 l 517 1143 l 517 517 l 588 596 l 856 596 l 919 517 l 919 596 l 1094 596 l 1094 421 l 517 421 l 342 596 l 342 1064 z "},"™":{"ha":1981,"x_min":60,"x_max":1921,"o":"m 1232 1578 l 1397 1379 l 1563 1578 l 1921 1578 l 1921 814 l 1846 814 l 1757 907 l 1757 1489 l 1692 1414 l 1613 1414 l 1397 1156 l 1182 1414 l 1103 1414 l 1038 1489 l 1038 907 l 949 814 l 874 814 l 874 1578 l 1232 1578 m 60 1321 l 60 1415 l 256 1578 l 826 1578 l 826 1415 l 543 1415 l 543 815 l 467 815 l 379 907 l 379 1415 l 288 1415 q 256 1388 272 1401 q 224 1361 240 1374 l 224 1321 l 60 1321 z "},"´":{"ha":651,"x_min":60,"x_max":592,"o":"m 592 1982 l 315 1657 l 60 1657 l 260 1982 l 592 1982 l 592 1982 z "},"¨":{"ha":599,"x_min":60,"x_max":544,"o":"m 175 1888 q 256 1853 225 1888 q 288 1771 288 1819 q 256 1690 288 1724 q 175 1656 224 1656 q 93 1689 126 1656 q 60 1771 60 1722 q 93 1853 60 1818 q 175 1888 126 1888 m 433 1888 q 514 1853 483 1888 q 544 1771 544 1819 q 513 1690 544 1724 q 433 1656 482 1656 q 352 1689 385 1656 q 319 1771 319 1722 q 352 1853 319 1819 q 433 1888 385 1888 z "},"–":{"ha":1032,"x_min":60,"x_max":972,"o":"m 60 635 l 60 975 l 972 975 l 972 635 l 60 635 l 60 635 z "},"¬":{"ha":1292,"x_min":60,"x_max":1232,"o":"m 1232 931 l 1232 411 l 918 411 l 918 625 l 60 625 l 60 931 l 1232 931 l 1232 931 z "},"ˆ":{"ha":914,"x_min":60,"x_max":854,"o":"m 60 1658 l 386 1983 l 524 1983 l 854 1658 l 554 1658 l 456 1763 l 451 1763 l 354 1658 l 60 1658 l 60 1658 z "},"˜":{"ha":796,"x_min":61,"x_max":735,"o":"m 272 1975 q 344 1958 311 1975 q 408 1919 378 1940 q 466 1881 438 1899 q 524 1864 494 1864 q 558 1888 546 1864 q 572 1928 569 1911 l 735 1928 q 724 1824 735 1875 q 690 1733 714 1774 q 624 1667 665 1692 q 522 1642 583 1642 q 451 1657 486 1642 q 385 1690 417 1672 q 328 1724 354 1708 q 286 1739 303 1739 q 242 1726 258 1739 q 226 1682 226 1714 l 61 1682 l 61 1700 q 74 1795 61 1746 q 113 1884 88 1844 q 178 1949 139 1924 q 272 1975 218 1975 z "},"ˇ":{"ha":914,"x_min":60,"x_max":854,"o":"m 60 1982 l 354 1982 l 451 1879 l 456 1879 l 554 1982 l 854 1982 l 524 1657 l 386 1657 l 60 1982 l 60 1982 z "},"˘":{"ha":914,"x_min":60,"x_max":854,"o":"m 60 1982 l 354 1982 l 451 1879 l 456 1879 l 554 1982 l 854 1982 l 524 1657 l 386 1657 l 60 1982 l 60 1982 z "},"˚":{"ha":722,"x_min":61,"x_max":663,"o":"m 364 2149 q 482 2126 428 2149 q 576 2065 536 2104 q 640 1972 617 2026 q 663 1854 663 1918 q 639 1735 663 1790 q 574 1638 615 1679 q 478 1572 533 1596 q 358 1549 422 1549 q 242 1571 296 1549 q 147 1632 188 1593 q 84 1725 107 1671 q 61 1842 61 1779 q 84 1962 61 1906 q 147 2060 107 2018 q 243 2125 188 2101 q 364 2149 299 2149 m 361 1769 q 411 1791 393 1769 q 429 1843 429 1813 q 411 1894 429 1874 q 361 1915 393 1915 q 312 1892 329 1915 q 294 1840 294 1869 q 313 1791 294 1813 q 361 1769 332 1769 z "},"¸":{"ha":511,"x_min":60,"x_max":450,"o":"m 108 -182 q 158 -208 132 -197 q 213 -219 185 -219 q 265 -167 265 -219 q 250 -137 265 -149 q 214 -118 235 -125 q 172 -108 193 -111 q 138 -104 150 -106 l 243 85 l 411 85 l 336 -35 q 418 -85 386 -56 q 450 -174 450 -114 q 431 -263 450 -225 q 381 -326 413 -301 q 306 -363 349 -351 q 217 -375 264 -375 q 136 -365 176 -375 q 60 -336 96 -356 l 108 -182 z "},"˝":{"ha":1067,"x_min":60,"x_max":985,"o":"m 60 1657 l 260 1982 l 592 1982 l 315 1657 l 60 1657 l 60 1657 m 453 1657 l 653 1982 l 985 1982 l 708 1657 l 453 1657 l 453 1657 z "},"˙":{"ha":347,"x_min":60,"x_max":288,"o":"m 60 1754 q 93 1836 60 1801 q 175 1871 126 1871 q 256 1837 225 1871 q 288 1754 288 1803 q 256 1673 288 1707 q 175 1639 224 1639 q 93 1672 126 1639 q 60 1754 60 1706 z "},"¼":{"ha":1888,"x_min":60,"x_max":1828,"o":"m 1079 544 l 1079 904 l 1165 904 l 1267 797 l 1267 544 l 1710 544 l 1642 611 l 1642 904 l 1828 904 l 1828 33 l 1642 33 l 1642 292 l 1711 358 l 1268 358 l 1079 544 l 1079 544 m 60 819 l 213 819 l 286 738 l 286 1286 l 249 1267 l 249 1204 l 61 1204 l 61 1369 l 300 1507 l 472 1507 l 472 738 l 539 819 l 697 819 l 697 633 l 60 633 l 60 819 l 60 819 m 393 -1 l 1256 1525 l 1383 1525 l 519 -1 l 393 -1 l 393 -1 z "},"½":{"ha":1761,"x_min":60,"x_max":1701,"o":"m 1250 894 l 1510 894 l 1701 707 l 1701 524 q 1425 368 1563 444 q 1151 210 1288 292 l 1699 210 l 1699 19 l 1065 19 l 1065 381 l 1525 639 l 1456 710 l 1310 710 l 1251 651 l 1251 600 l 1065 600 l 1065 707 l 1250 894 m 60 819 l 213 819 l 286 738 l 286 1286 l 249 1267 l 249 1204 l 61 1204 l 61 1369 l 300 1507 l 472 1507 l 472 738 l 539 819 l 697 819 l 697 633 l 60 633 l 60 819 m 1267 1525 l 1397 1525 l 535 -1 l 407 -1 l 1267 1525 z "},"¾":{"ha":1886,"x_min":60,"x_max":1826,"o":"m 247 897 l 247 813 l 488 813 l 488 896 l 149 1146 l 375 1311 l 60 1311 l 60 1496 l 675 1496 l 675 1311 q 556 1226 615 1268 q 436 1140 496 1185 l 675 968 l 675 622 l 60 622 l 60 897 l 247 897 m 1078 510 l 1078 869 l 1164 869 l 1265 763 l 1265 511 l 1708 511 l 1640 576 l 1640 869 l 1826 869 l 1826 -1 l 1640 -1 l 1640 257 l 1710 324 l 1267 324 l 1078 510 m 422 -1 l 1285 1525 l 1413 1525 l 550 -1 l 422 -1 z "},"×":{"ha":1006,"x_min":60,"x_max":946,"o":"m 300 1078 l 503 875 l 706 1078 l 946 838 l 743 635 l 946 432 l 706 192 l 503 394 l 300 192 l 60 432 l 263 635 l 60 838 l 300 1078 l 300 1078 z "},"÷":{"ha":1032,"x_min":60,"x_max":972,"o":"m 60 800 l 972 800 l 972 460 l 60 460 l 60 800 l 60 800 m 347 328 l 688 328 l 688 -12 l 347 -12 l 347 328 l 347 328 m 347 953 l 347 1293 l 688 1293 l 688 953 l 347 953 l 347 953 z "},"Ä":{"ha":2031,"x_min":60,"x_max":1971,"o":"m 60 0 l 60 1210 l 433 1583 l 1596 1583 l 1971 1210 l 1971 0 l 1596 0 l 1596 1378 l 1476 1210 l 553 1210 l 435 1378 l 435 0 l 60 0 m 888 1888 q 969 1853 938 1888 q 1000 1771 1000 1819 q 968 1690 1000 1724 q 888 1656 936 1656 q 806 1689 839 1656 q 772 1771 772 1722 q 806 1853 772 1818 q 888 1888 839 1888 m 1146 1888 q 1226 1853 1196 1888 q 1257 1771 1257 1819 q 1226 1690 1257 1724 q 1146 1656 1194 1656 q 1065 1689 1097 1656 q 1032 1771 1032 1722 q 1065 1853 1032 1819 q 1146 1888 1097 1888 z "},"Å":{"ha":2031,"x_min":60,"x_max":1971,"o":"m 60 0 l 60 1210 l 433 1583 l 1596 1583 l 1971 1210 l 1971 0 l 1596 0 l 1596 1378 l 1476 1210 l 553 1210 l 435 1378 l 435 0 l 60 0 m 1018 2149 q 1136 2126 1082 2149 q 1231 2065 1190 2104 q 1294 1972 1271 2026 q 1317 1854 1317 1918 q 1293 1735 1317 1790 q 1228 1638 1269 1679 q 1132 1572 1188 1596 q 1013 1549 1076 1549 q 896 1571 950 1549 q 801 1632 842 1593 q 738 1725 761 1671 q 715 1842 715 1779 q 738 1962 715 1906 q 801 2060 761 2018 q 897 2125 842 2101 q 1018 2149 953 2149 m 1015 1769 q 1065 1791 1047 1769 q 1083 1843 1083 1813 q 1065 1894 1083 1874 q 1015 1915 1047 1915 q 966 1892 983 1915 q 949 1840 949 1869 q 967 1791 949 1813 q 1015 1769 986 1769 z "},"Ç":{"ha":2025,"x_min":60,"x_max":1965,"o":"m 60 375 l 60 1210 q 246 1398 154 1304 q 433 1583 338 1492 l 1965 1583 l 1965 1210 l 601 1210 l 433 1329 l 435 256 q 517 317 476 286 q 601 375 558 347 l 1965 375 l 1965 0 l 436 0 l 60 375 m 864 -182 q 914 -208 888 -197 q 968 -219 940 -219 q 1021 -167 1021 -219 q 1006 -137 1021 -149 q 969 -118 990 -125 q 927 -108 949 -111 q 893 -104 906 -106 l 999 85 l 1167 85 l 1092 -35 q 1174 -85 1142 -56 q 1206 -174 1206 -114 q 1187 -263 1206 -225 q 1136 -326 1168 -301 q 1062 -363 1104 -351 q 972 -375 1019 -375 q 892 -365 932 -375 q 815 -336 851 -356 l 864 -182 z "},"É":{"ha":2025,"x_min":60,"x_max":1965,"o":"m 1965 1583 l 1965 1331 l 1797 1213 l 600 1213 q 517 1271 558 1242 q 435 1329 475 1300 l 435 982 l 1506 982 l 1674 864 l 1674 607 l 600 607 l 435 725 l 435 256 l 603 375 l 1794 375 l 1963 256 l 1963 0 l 60 0 l 60 1583 l 1965 1583 m 1278 1982 l 1001 1657 l 746 1657 l 946 1982 l 1278 1982 z "},"Ñ":{"ha":2025,"x_min":60,"x_max":1965,"o":"m 60 1583 l 1322 1583 l 1590 1126 l 1590 1583 l 1965 1583 l 1965 0 l 1753 0 l 1590 117 l 1590 374 q 1351 794 1475 588 q 1103 1210 1228 1001 l 596 1210 l 435 1325 l 435 117 l 274 0 l 60 0 l 60 1583 m 888 1975 q 960 1958 926 1975 q 1023 1919 993 1940 q 1081 1881 1053 1899 q 1139 1864 1110 1864 q 1173 1888 1161 1864 q 1188 1928 1185 1911 l 1350 1928 q 1340 1824 1350 1875 q 1305 1733 1329 1774 q 1240 1667 1281 1692 q 1138 1642 1199 1642 q 1067 1657 1101 1642 q 1001 1690 1032 1672 q 944 1724 969 1708 q 901 1739 918 1739 q 858 1726 874 1739 q 842 1682 842 1714 l 676 1682 l 676 1700 q 690 1795 676 1746 q 728 1884 703 1844 q 794 1949 754 1924 q 888 1975 833 1975 z "},"Ö":{"ha":2031,"x_min":60,"x_max":1971,"o":"m 1971 1210 l 1971 375 l 1596 0 l 433 0 l 60 374 l 60 1210 l 433 1583 l 1596 1583 l 1971 1210 m 1596 1378 l 1476 1210 l 553 1210 l 435 1378 l 435 206 l 553 375 l 1476 375 l 1596 206 l 1596 1378 m 888 1888 q 969 1853 938 1888 q 1000 1771 1000 1819 q 968 1690 1000 1724 q 888 1656 936 1656 q 806 1689 839 1656 q 772 1771 772 1722 q 806 1853 772 1818 q 888 1888 839 1888 m 1146 1888 q 1226 1853 1196 1888 q 1257 1771 1257 1819 q 1226 1690 1257 1724 q 1146 1656 1194 1656 q 1065 1689 1097 1656 q 1032 1771 1032 1722 q 1065 1853 1032 1819 q 1146 1888 1097 1888 z "},"Ü":{"ha":2025,"x_min":60,"x_max":1965,"o":"m 269 1583 l 435 1467 l 435 258 q 514 319 471 290 q 597 375 557 347 l 1429 375 l 1590 260 l 1590 1467 l 1756 1583 l 1965 1583 l 1965 0 l 433 0 l 60 375 l 60 1583 l 269 1583 m 885 1888 q 966 1853 935 1888 q 997 1771 997 1819 q 965 1690 997 1724 q 885 1656 933 1656 q 803 1689 836 1656 q 769 1771 769 1722 q 803 1853 769 1818 q 885 1888 836 1888 m 1143 1888 q 1224 1853 1193 1888 q 1254 1771 1254 1819 q 1223 1690 1254 1724 q 1143 1656 1192 1656 q 1062 1689 1094 1656 q 1029 1771 1029 1722 q 1062 1853 1029 1819 q 1143 1888 1094 1888 z "},"á":{"ha":2031,"x_min":60,"x_max":1971,"o":"m 60 0 l 60 1210 l 433 1583 l 1596 1583 l 1971 1210 l 1971 0 l 1596 0 l 1596 1378 l 1476 1210 l 553 1210 l 435 1378 l 435 0 l 60 0 l 60 0 m 1281 1982 l 1004 1657 l 749 1657 l 949 1982 l 1281 1982 l 1281 1982 z "},"à":{"ha":2031,"x_min":60,"x_max":1971,"o":"m 60 0 l 60 1210 l 433 1583 l 1596 1583 l 1971 1210 l 1971 0 l 1596 0 l 1596 1378 l 1476 1210 l 553 1210 l 435 1378 l 435 0 l 60 0 l 60 0 m 1081 1982 l 1281 1657 l 1025 1657 l 749 1982 l 1081 1982 l 1081 1982 z "},"â":{"ha":2031,"x_min":60,"x_max":1971,"o":"m 60 0 l 60 1210 l 433 1583 l 1596 1583 l 1971 1210 l 1971 0 l 1596 0 l 1596 1378 l 1476 1210 l 553 1210 l 435 1378 l 435 0 l 60 0 l 60 0 m 618 1658 l 944 1983 l 1082 1983 l 1413 1658 l 1113 1658 l 1014 1763 l 1010 1763 l 913 1658 l 618 1658 l 618 1658 z "},"ä":{"ha":2031,"x_min":60,"x_max":1971,"o":"m 60 0 l 60 1210 l 433 1583 l 1596 1583 l 1971 1210 l 1971 0 l 1596 0 l 1596 1378 l 1476 1210 l 553 1210 l 435 1378 l 435 0 l 60 0 m 888 1888 q 969 1853 938 1888 q 1000 1771 1000 1819 q 968 1690 1000 1724 q 888 1656 936 1656 q 806 1689 839 1656 q 772 1771 772 1722 q 806 1853 772 1818 q 888 1888 839 1888 m 1146 1888 q 1226 1853 1196 1888 q 1257 1771 1257 1819 q 1226 1690 1257 1724 q 1146 1656 1194 1656 q 1065 1689 1097 1656 q 1032 1771 1032 1722 q 1065 1853 1032 1819 q 1146 1888 1097 1888 z "},"ã":{"ha":2031,"x_min":60,"x_max":1971,"o":"m 60 0 l 60 1210 l 433 1583 l 1596 1583 l 1971 1210 l 1971 0 l 1596 0 l 1596 1378 l 1476 1210 l 553 1210 l 435 1378 l 435 0 l 60 0 m 890 1975 q 963 1958 929 1975 q 1026 1919 996 1940 q 1084 1881 1056 1899 q 1142 1864 1113 1864 q 1176 1888 1164 1864 q 1190 1928 1188 1911 l 1353 1928 q 1342 1824 1353 1875 q 1308 1733 1332 1774 q 1242 1667 1283 1692 q 1140 1642 1201 1642 q 1069 1657 1104 1642 q 1003 1690 1035 1672 q 947 1724 972 1708 q 904 1739 921 1739 q 860 1726 876 1739 q 844 1682 844 1714 l 679 1682 l 679 1700 q 692 1795 679 1746 q 731 1884 706 1844 q 797 1949 757 1924 q 890 1975 836 1975 z "},"å":{"ha":2031,"x_min":60,"x_max":1971,"o":"m 60 0 l 60 1210 l 433 1583 l 1596 1583 l 1971 1210 l 1971 0 l 1596 0 l 1596 1378 l 1476 1210 l 553 1210 l 435 1378 l 435 0 l 60 0 m 1018 2149 q 1136 2126 1082 2149 q 1231 2065 1190 2104 q 1294 1972 1271 2026 q 1317 1854 1317 1918 q 1293 1735 1317 1790 q 1228 1638 1269 1679 q 1132 1572 1188 1596 q 1013 1549 1076 1549 q 896 1571 950 1549 q 801 1632 842 1593 q 738 1725 761 1671 q 715 1842 715 1779 q 738 1962 715 1906 q 801 2060 761 2018 q 897 2125 842 2101 q 1018 2149 953 2149 m 1015 1769 q 1065 1791 1047 1769 q 1083 1843 1083 1813 q 1065 1894 1083 1874 q 1015 1915 1047 1915 q 966 1892 983 1915 q 949 1840 949 1869 q 967 1791 949 1813 q 1015 1769 986 1769 z "},"ç":{"ha":2025,"x_min":60,"x_max":1965,"o":"m 60 375 l 60 1210 q 246 1398 154 1304 q 433 1583 338 1492 l 1965 1583 l 1965 1210 l 601 1210 l 433 1329 l 435 256 q 517 317 476 286 q 601 375 558 347 l 1965 375 l 1965 0 l 436 0 l 60 375 m 864 -182 q 914 -208 888 -197 q 968 -219 940 -219 q 1021 -167 1021 -219 q 1006 -137 1021 -149 q 969 -118 990 -125 q 927 -108 949 -111 q 893 -104 906 -106 l 999 85 l 1167 85 l 1092 -35 q 1174 -85 1142 -56 q 1206 -174 1206 -114 q 1187 -263 1206 -225 q 1136 -326 1168 -301 q 1062 -363 1104 -351 q 972 -375 1019 -375 q 892 -365 932 -375 q 815 -336 851 -356 l 864 -182 z "},"é":{"ha":2025,"x_min":60,"x_max":1965,"o":"m 1965 1583 l 1965 1331 l 1797 1213 l 600 1213 q 517 1271 558 1242 q 435 1329 475 1300 l 435 982 l 1506 982 l 1674 864 l 1674 607 l 600 607 l 435 725 l 435 256 l 603 375 l 1794 375 l 1963 256 l 1963 0 l 60 0 l 60 1583 l 1965 1583 m 1278 1982 l 1001 1657 l 746 1657 l 946 1982 l 1278 1982 z "},"è":{"ha":2025,"x_min":60,"x_max":1965,"o":"m 1965 1583 l 1965 1331 l 1797 1213 l 600 1213 q 517 1271 558 1242 q 435 1329 475 1300 l 435 982 l 1506 982 l 1674 864 l 1674 607 l 600 607 l 435 725 l 435 256 l 603 375 l 1794 375 l 1963 256 l 1963 0 l 60 0 l 60 1583 l 1965 1583 m 1078 1982 l 1278 1657 l 1022 1657 l 746 1982 l 1078 1982 z "},"ê":{"ha":2025,"x_min":60,"x_max":1965,"o":"m 1965 1583 l 1965 1331 l 1797 1213 l 600 1213 q 517 1271 558 1242 q 435 1329 475 1300 l 435 982 l 1506 982 l 1674 864 l 1674 607 l 600 607 l 435 725 l 435 256 l 603 375 l 1794 375 l 1963 256 l 1963 0 l 60 0 l 60 1583 l 1965 1583 m 615 1658 l 942 1983 l 1079 1983 l 1410 1658 l 1110 1658 l 1011 1763 l 1007 1763 l 910 1658 l 615 1658 z "},"ë":{"ha":2025,"x_min":60,"x_max":1965,"o":"m 1965 1583 l 1965 1331 l 1797 1213 l 600 1213 q 517 1271 558 1242 q 435 1329 475 1300 l 435 982 l 1506 982 l 1674 864 l 1674 607 l 600 607 l 435 725 l 435 256 l 603 375 l 1794 375 l 1963 256 l 1963 0 l 60 0 l 60 1583 l 1965 1583 m 885 1888 q 966 1853 935 1888 q 997 1771 997 1819 q 965 1690 997 1724 q 885 1656 933 1656 q 803 1689 836 1656 q 769 1771 769 1722 q 803 1853 769 1818 q 885 1888 836 1888 m 1143 1888 q 1224 1853 1193 1888 q 1254 1771 1254 1819 q 1223 1690 1254 1724 q 1143 1656 1192 1656 q 1062 1689 1094 1656 q 1029 1771 1029 1722 q 1062 1853 1029 1819 q 1143 1888 1094 1888 z "},"í":{"ha":2014,"x_min":60,"x_max":1954,"o":"m 60 1328 l 60 1583 l 1953 1583 l 1954 1451 l 1954 1210 l 1358 1210 l 1194 1326 l 1194 257 l 1358 375 l 1789 375 l 1953 257 l 1953 0 l 60 0 l 60 375 l 656 375 l 819 257 l 819 1326 q 738 1267 779 1297 q 656 1210 697 1238 l 224 1210 l 60 1328 m 1272 1982 l 996 1657 l 740 1657 l 940 1982 l 1272 1982 z "},"ì":{"ha":2014,"x_min":60,"x_max":1954,"o":"m 60 1328 l 60 1583 l 1953 1583 l 1954 1451 l 1954 1210 l 1358 1210 l 1194 1326 l 1194 257 l 1358 375 l 1789 375 l 1953 257 l 1953 0 l 60 0 l 60 375 l 656 375 l 819 257 l 819 1326 q 738 1267 779 1297 q 656 1210 697 1238 l 224 1210 l 60 1328 m 1072 1982 l 1272 1657 l 1017 1657 l 740 1982 l 1072 1982 z "},"î":{"ha":2014,"x_min":60,"x_max":1954,"o":"m 60 1328 l 60 1583 l 1953 1583 l 1954 1451 l 1954 1210 l 1358 1210 l 1194 1326 l 1194 257 l 1358 375 l 1789 375 l 1953 257 l 1953 0 l 60 0 l 60 375 l 656 375 l 819 257 l 819 1326 q 738 1267 779 1297 q 656 1210 697 1238 l 224 1210 l 60 1328 m 610 1658 l 936 1983 l 1074 1983 l 1404 1658 l 1104 1658 l 1006 1763 l 1001 1763 l 904 1658 l 610 1658 z "},"ï":{"ha":2014,"x_min":60,"x_max":1954,"o":"m 60 1328 l 60 1583 l 1953 1583 l 1954 1451 l 1954 1210 l 1358 1210 l 1194 1326 l 1194 257 l 1358 375 l 1789 375 l 1953 257 l 1953 0 l 60 0 l 60 375 l 656 375 l 819 257 l 819 1326 q 738 1267 779 1297 q 656 1210 697 1238 l 224 1210 l 60 1328 m 879 1888 q 960 1853 929 1888 q 992 1771 992 1819 q 960 1690 992 1724 q 879 1656 928 1656 q 797 1689 831 1656 q 764 1771 764 1722 q 797 1853 764 1818 q 879 1888 831 1888 m 1138 1888 q 1218 1853 1188 1888 q 1249 1771 1249 1819 q 1217 1690 1249 1724 q 1138 1656 1186 1656 q 1056 1689 1089 1656 q 1024 1771 1024 1722 q 1056 1853 1024 1819 q 1138 1888 1089 1888 z "},"ñ":{"ha":2025,"x_min":60,"x_max":1965,"o":"m 60 1583 l 1322 1583 l 1590 1126 l 1590 1583 l 1965 1583 l 1965 0 l 1753 0 l 1590 117 l 1590 374 q 1351 794 1475 588 q 1103 1210 1228 1001 l 596 1210 l 435 1325 l 435 117 l 274 0 l 60 0 l 60 1583 m 888 1975 q 960 1958 926 1975 q 1023 1919 993 1940 q 1081 1881 1053 1899 q 1139 1864 1110 1864 q 1173 1888 1161 1864 q 1188 1928 1185 1911 l 1350 1928 q 1340 1824 1350 1875 q 1305 1733 1329 1774 q 1240 1667 1281 1692 q 1138 1642 1199 1642 q 1067 1657 1101 1642 q 1001 1690 1032 1672 q 944 1724 969 1708 q 901 1739 918 1739 q 858 1726 874 1739 q 842 1682 842 1714 l 676 1682 l 676 1700 q 690 1795 676 1746 q 728 1884 703 1844 q 794 1949 754 1924 q 888 1975 833 1975 z "},"ò":{"ha":2031,"x_min":60,"x_max":1971,"o":"m 1971 1210 l 1971 375 l 1596 0 l 433 0 l 60 374 l 60 1210 l 433 1583 l 1596 1583 l 1971 1210 l 1971 1210 m 1596 1378 l 1476 1210 l 553 1210 l 435 1378 l 435 206 l 553 375 l 1476 375 l 1596 206 l 1596 1378 l 1596 1378 m 1081 1982 l 1281 1657 l 1025 1657 l 749 1982 l 1081 1982 l 1081 1982 z "},"ó":{"ha":2031,"x_min":60,"x_max":1971,"o":"m 1971 1210 l 1971 375 l 1596 0 l 433 0 l 60 374 l 60 1210 l 433 1583 l 1596 1583 l 1971 1210 l 1971 1210 m 1596 1378 l 1476 1210 l 553 1210 l 435 1378 l 435 206 l 553 375 l 1476 375 l 1596 206 l 1596 1378 l 1596 1378 m 1281 1982 l 1004 1657 l 749 1657 l 949 1982 l 1281 1982 l 1281 1982 z "},"ô":{"ha":2031,"x_min":60,"x_max":1971,"o":"m 1971 1210 l 1971 375 l 1596 0 l 433 0 l 60 374 l 60 1210 l 433 1583 l 1596 1583 l 1971 1210 l 1971 1210 m 1596 1378 l 1476 1210 l 553 1210 l 435 1378 l 435 206 l 553 375 l 1476 375 l 1596 206 l 1596 1378 l 1596 1378 m 618 1658 l 944 1983 l 1082 1983 l 1413 1658 l 1113 1658 l 1014 1763 l 1010 1763 l 913 1658 l 618 1658 l 618 1658 z "},"ö":{"ha":2031,"x_min":60,"x_max":1971,"o":"m 1971 1210 l 1971 375 l 1596 0 l 433 0 l 60 374 l 60 1210 l 433 1583 l 1596 1583 l 1971 1210 m 1596 1378 l 1476 1210 l 553 1210 l 435 1378 l 435 206 l 553 375 l 1476 375 l 1596 206 l 1596 1378 m 888 1888 q 969 1853 938 1888 q 1000 1771 1000 1819 q 968 1690 1000 1724 q 888 1656 936 1656 q 806 1689 839 1656 q 772 1771 772 1722 q 806 1853 772 1818 q 888 1888 839 1888 m 1146 1888 q 1226 1853 1196 1888 q 1257 1771 1257 1819 q 1226 1690 1257 1724 q 1146 1656 1194 1656 q 1065 1689 1097 1656 q 1032 1771 1032 1722 q 1065 1853 1032 1819 q 1146 1888 1097 1888 z "},"õ":{"ha":2031,"x_min":60,"x_max":1971,"o":"m 1971 1210 l 1971 375 l 1596 0 l 433 0 l 60 374 l 60 1210 l 433 1583 l 1596 1583 l 1971 1210 m 1596 1378 l 1476 1210 l 553 1210 l 435 1378 l 435 206 l 553 375 l 1476 375 l 1596 206 l 1596 1378 m 890 1975 q 963 1958 929 1975 q 1026 1919 996 1940 q 1084 1881 1056 1899 q 1142 1864 1113 1864 q 1176 1888 1164 1864 q 1190 1928 1188 1911 l 1353 1928 q 1342 1824 1353 1875 q 1308 1733 1332 1774 q 1242 1667 1283 1692 q 1140 1642 1201 1642 q 1069 1657 1104 1642 q 1003 1690 1035 1672 q 947 1724 972 1708 q 904 1739 921 1739 q 860 1726 876 1739 q 844 1682 844 1714 l 679 1682 l 679 1700 q 692 1795 679 1746 q 731 1884 706 1844 q 797 1949 757 1924 q 890 1975 836 1975 z "},"ú":{"ha":2025,"x_min":60,"x_max":1965,"o":"m 269 1583 l 435 1467 l 435 258 q 514 319 471 290 q 597 375 557 347 l 1429 375 l 1590 260 l 1590 1467 l 1756 1583 l 1965 1583 l 1965 0 l 433 0 l 60 375 l 60 1583 l 269 1583 m 1278 1982 l 1001 1657 l 746 1657 l 946 1982 l 1278 1982 z "},"ù":{"ha":2025,"x_min":60,"x_max":1965,"o":"m 269 1583 l 435 1467 l 435 258 q 514 319 471 290 q 597 375 557 347 l 1429 375 l 1590 260 l 1590 1467 l 1756 1583 l 1965 1583 l 1965 0 l 433 0 l 60 375 l 60 1583 l 269 1583 m 1078 1982 l 1278 1657 l 1022 1657 l 746 1982 l 1078 1982 z "},"û":{"ha":2025,"x_min":60,"x_max":1965,"o":"m 269 1583 l 435 1467 l 435 258 q 514 319 471 290 q 597 375 557 347 l 1429 375 l 1590 260 l 1590 1467 l 1756 1583 l 1965 1583 l 1965 0 l 433 0 l 60 375 l 60 1583 l 269 1583 m 615 1658 l 942 1983 l 1079 1983 l 1410 1658 l 1110 1658 l 1011 1763 l 1007 1763 l 910 1658 l 615 1658 z "},"ü":{"ha":2025,"x_min":60,"x_max":1965,"o":"m 269 1583 l 435 1467 l 435 258 q 514 319 471 290 q 597 375 557 347 l 1429 375 l 1590 260 l 1590 1467 l 1756 1583 l 1965 1583 l 1965 0 l 433 0 l 60 375 l 60 1583 l 269 1583 m 885 1888 q 966 1853 935 1888 q 997 1771 997 1819 q 965 1690 997 1724 q 885 1656 933 1656 q 803 1689 836 1656 q 769 1771 769 1722 q 803 1853 769 1818 q 885 1888 836 1888 m 1143 1888 q 1224 1853 1193 1888 q 1254 1771 1254 1819 q 1223 1690 1254 1724 q 1143 1656 1192 1656 q 1062 1689 1094 1656 q 1029 1771 1029 1722 q 1062 1853 1029 1819 q 1143 1888 1094 1888 z "},"†":{"ha":1067,"x_min":76,"x_max":989,"o":"m 363 -156 l 363 1761 l 703 1761 l 703 -156 l 363 -156 l 363 -156 m 76 635 l 76 975 l 989 975 l 989 635 l 76 635 l 76 635 z "},"Ø":{"ha":2031,"x_min":60,"x_max":1971,"o":"m 1971 1210 l 1971 375 l 1596 0 l 433 0 l 60 374 l 60 1210 l 433 1583 l 1596 1583 l 1971 1210 l 1971 1210 m 1596 1378 l 1476 1210 l 553 1210 l 435 1378 l 435 206 l 553 375 l 1476 375 l 1596 206 l 1596 1378 l 1596 1378 m 1594 1601 l 744 -44 l 389 -44 l 1240 1601 l 1594 1601 l 1594 1601 z "},"¥":{"ha":2021,"x_min":60,"x_max":1961,"o":"m 60 982 l 60 1583 l 274 1583 l 435 1468 l 435 988 l 1586 988 l 1586 1468 l 1751 1583 l 1961 1583 l 1961 979 l 1589 607 l 1342 607 q 1270 690 1307 650 q 1200 775 1233 731 l 1200 0 l 821 0 l 821 775 q 749 691 782 735 q 678 607 717 647 l 433 607 l 60 982 m 554 306 l 554 399 l 1467 399 l 1467 306 l 554 306 m 554 465 l 554 563 l 1467 563 l 1467 465 l 554 465 z "},"Ð":{"ha":2025,"x_min":0,"x_max":1965,"o":"m 60 1583 l 1589 1583 l 1965 1210 l 1965 375 l 1597 0 l 60 0 l 60 1583 m 1758 375 l 1590 493 l 1590 1090 q 1674 1151 1632 1121 q 1758 1210 1715 1181 l 435 1210 l 435 375 l 1758 375 m 0 635 l 0 975 l 913 975 l 913 635 l 0 635 z "},"ð":{"ha":2025,"x_min":60,"x_max":1965,"o":"m 60 256 l 228 375 l 1426 375 q 1509 317 1468 350 q 1590 257 1550 285 l 1590 725 q 1508 667 1549 696 q 1426 607 1467 638 l 433 607 l 60 981 l 60 1583 l 1590 1583 l 1965 1210 l 1965 0 l 60 0 l 60 256 m 435 1329 l 435 865 q 515 925 472 897 q 597 982 557 953 l 1590 982 l 1590 1329 l 1425 1213 l 600 1213 l 435 1329 z "},"Ł":{"ha":2031,"x_min":60,"x_max":1971,"o":"m 60 1583 l 435 1583 l 435 204 l 585 375 l 1808 375 q 1890 317 1851 350 q 1971 258 1928 283 l 1971 0 l 440 0 l 60 375 l 60 1583 m 558 635 l 558 975 l 1471 975 l 1471 635 l 558 635 z "},"ł":{"ha":2031,"x_min":60,"x_max":1971,"o":"m 60 1583 l 435 1583 l 435 204 l 585 375 l 1808 375 q 1890 317 1851 350 q 1971 258 1928 283 l 1971 0 l 440 0 l 60 375 l 60 1583 m 558 635 l 558 975 l 1471 975 l 1471 635 l 558 635 z "},"Š":{"ha":2025,"x_min":60,"x_max":1965,"o":"m 60 607 l 60 1210 l 433 1583 l 1965 1583 l 1965 1331 l 1797 1213 l 600 1213 q 517 1271 558 1242 q 435 1329 475 1300 l 435 865 q 515 925 475 894 q 597 982 556 956 l 1965 982 l 1965 0 l 60 0 l 60 256 l 228 375 l 1426 375 q 1509 317 1468 350 q 1590 257 1550 285 l 1590 725 q 1508 667 1549 696 q 1426 607 1467 638 l 60 607 m 615 1982 l 910 1982 l 1007 1879 l 1011 1879 l 1110 1982 l 1410 1982 l 1079 1657 l 942 1657 l 615 1982 z "},"š":{"ha":2025,"x_min":60,"x_max":1965,"o":"m 60 607 l 60 1210 l 433 1583 l 1965 1583 l 1965 1331 l 1797 1213 l 600 1213 q 517 1271 558 1242 q 435 1329 475 1300 l 435 865 q 515 925 475 894 q 597 982 556 956 l 1965 982 l 1965 0 l 60 0 l 60 256 l 228 375 l 1426 375 q 1509 317 1468 350 q 1590 257 1550 285 l 1590 725 q 1508 667 1549 696 q 1426 607 1467 638 l 60 607 m 615 1982 l 910 1982 l 1007 1879 l 1011 1879 l 1110 1982 l 1410 1982 l 1079 1657 l 942 1657 l 615 1982 z "},"Ý":{"ha":2021,"x_min":60,"x_max":1961,"o":"m 60 982 l 60 1583 l 274 1583 l 435 1468 l 435 988 l 1586 988 l 1586 1468 l 1751 1583 l 1961 1583 l 1961 979 l 1589 607 l 1342 607 q 1270 690 1307 650 q 1200 775 1233 731 l 1200 0 l 821 0 l 821 775 q 749 691 782 735 q 678 607 717 647 l 433 607 l 60 982 m 1276 1982 l 1000 1657 l 744 1657 l 944 1982 l 1276 1982 z "},"ý":{"ha":2021,"x_min":60,"x_max":1961,"o":"m 60 982 l 60 1583 l 274 1583 l 435 1468 l 435 988 l 1586 988 l 1586 1468 l 1751 1583 l 1961 1583 l 1961 979 l 1589 607 l 1342 607 q 1270 690 1307 650 q 1200 775 1233 731 l 1200 0 l 821 0 l 821 775 q 749 691 782 735 q 678 607 717 647 l 433 607 l 60 982 m 1276 1982 l 1000 1657 l 744 1657 l 944 1982 l 1276 1982 z "},"’":{"ha":503,"x_min":7,"x_max":496,"o":"m 496 1583 l 496 1114 l 147 914 l 7 1115 l 254 1257 l 71 1257 l 71 1583 l 496 1583 l 496 1583 z "},"”":{"ha":961,"x_min":7,"x_max":954,"o":"m 496 1583 l 496 1114 l 147 914 l 7 1115 l 254 1257 l 71 1257 l 71 1583 l 496 1583 l 496 1583 m 954 1583 l 954 1114 l 606 914 l 465 1115 l 713 1257 l 529 1257 l 529 1583 l 954 1583 l 954 1583 z "},"“":{"ha":961,"x_min":7,"x_max":954,"o":"m 465 914 l 465 1383 l 814 1583 l 954 1382 l 707 1240 l 890 1240 l 890 914 l 465 914 l 465 914 m 7 914 l 7 1383 l 356 1583 l 496 1382 l 249 1240 l 432 1240 l 432 914 l 7 914 l 7 914 z "},"‘":{"ha":503,"x_min":7,"x_max":496,"o":"m 7 914 l 7 1383 l 356 1583 l 496 1382 l 249 1240 l 432 1240 l 432 914 l 7 914 l 7 914 z "},"a":{"ha":2031,"x_min":60,"x_max":1971,"o":"m 60 0 l 60 1210 l 433 1583 l 1596 1583 l 1971 1210 l 1971 0 l 1596 0 l 1596 1378 l 1476 1210 l 553 1210 l 435 1378 l 435 0 l 60 0 l 60 0 z "},"b":{"ha":2031,"x_min":60,"x_max":1971,"o":"m 1597 0 l 60 0 l 60 1583 l 1596 1583 l 1971 1210 l 1969 951 l 1743 792 l 1971 632 l 1971 382 l 1597 0 l 1597 0 m 1426 979 l 1594 860 l 1594 1329 l 1426 1210 l 601 1210 l 435 1331 l 433 979 l 1426 979 l 1426 979 m 601 376 l 1426 376 l 1594 256 l 1594 607 l 601 607 l 435 726 l 435 257 l 601 376 l 601 376 z "},"c":{"ha":2025,"x_min":60,"x_max":1965,"o":"m 60 375 l 60 1210 l 433 1583 l 1965 1583 l 1965 1210 l 601 1210 q 518 1270 560 1240 q 433 1329 476 1300 l 435 256 l 601 375 l 1965 375 l 1965 0 l 436 0 l 60 375 z "},"d":{"ha":2025,"x_min":60,"x_max":1965,"o":"m 60 1583 l 1589 1583 l 1965 1210 l 1965 375 l 1597 0 l 60 0 l 60 1583 m 1758 375 l 1590 493 l 1590 1090 q 1674 1151 1632 1121 q 1758 1210 1715 1181 l 435 1210 l 435 375 l 1758 375 z "},"e":{"ha":2025,"x_min":60,"x_max":1965,"o":"m 436 0 l 60 375 l 60 1210 l 433 1583 l 1965 1583 l 1965 1331 l 1797 1213 l 600 1213 q 517 1271 558 1242 q 435 1329 475 1300 l 435 982 l 1506 982 l 1674 864 l 1674 607 l 600 607 l 435 725 l 435 256 l 603 375 l 1794 375 l 1963 256 l 1963 0 l 436 0 z "},"f":{"ha":2022,"x_min":60,"x_max":1963,"o":"m 60 0 l 60 1210 l 429 1583 l 1963 1583 l 1963 1328 l 1794 1210 l 600 1210 l 435 1328 l 435 858 q 516 919 475 889 q 600 976 557 949 l 1674 976 l 1674 721 l 1506 601 l 435 601 l 435 118 l 267 0 l 60 0 z "},"g":{"ha":2025,"x_min":60,"x_max":1965,"o":"m 436 0 l 60 375 l 60 1210 q 246 1398 154 1304 q 433 1583 338 1492 l 1965 1583 l 1965 1326 l 1800 1210 l 601 1210 q 517 1269 558 1239 q 433 1329 475 1299 l 435 256 q 517 317 476 286 q 601 375 558 347 l 1429 375 l 1428 376 l 1426 376 l 1425 378 l 1426 376 l 1428 376 q 1474 344 1451 361 q 1519 310 1496 326 l 1590 260 l 1590 713 q 1508 653 1550 682 q 1426 596 1467 625 l 876 596 l 876 971 l 1965 971 l 1965 0 l 436 0 z "},"h":{"ha":2025,"x_min":60,"x_max":1965,"o":"m 269 1583 l 435 1467 l 435 979 l 1426 979 l 1592 861 l 1590 1583 l 1965 1583 l 1965 0 l 1754 0 l 1590 118 l 1590 604 l 599 604 l 435 722 l 435 0 l 60 0 l 60 1583 l 269 1583 l 269 1583 z "},"i":{"ha":2014,"x_min":60,"x_max":1954,"o":"m 60 1328 l 60 1583 l 1953 1583 l 1954 1210 l 1358 1210 q 1276 1267 1317 1239 q 1194 1326 1235 1296 l 1194 257 l 1358 375 l 1789 375 l 1953 257 l 1953 0 l 60 0 l 60 375 l 656 375 l 819 257 l 819 1326 l 656 1210 l 224 1210 l 60 1328 z "},"j":{"ha":2014,"x_min":60,"x_max":1954,"o":"m 60 583 l 271 583 l 435 468 l 433 258 q 516 316 475 286 q 597 375 557 346 l 1415 375 l 1579 257 l 1579 1326 q 1498 1267 1539 1297 q 1415 1210 1457 1238 l 644 1210 l 481 1326 l 481 1583 l 1954 1583 l 1954 374 l 1575 0 l 60 0 l 60 583 z "},"k":{"ha":2028,"x_min":60,"x_max":1968,"o":"m 60 0 l 60 1583 l 271 1583 l 435 1467 l 435 860 l 594 974 l 1171 974 l 1525 1583 l 1968 1583 l 1501 792 l 1965 0 l 1525 0 l 1108 715 l 944 600 l 435 600 l 435 115 l 272 0 l 60 0 l 60 0 z "},"l":{"ha":2031,"x_min":60,"x_max":1971,"o":"m 60 1583 l 435 1583 l 435 204 l 585 375 l 1808 375 l 1971 258 l 1971 0 l 440 0 l 60 375 l 60 1583 l 60 1583 z "},"m":{"ha":2025,"x_min":60,"x_max":1965,"o":"m 1965 1583 l 1965 0 l 1756 0 q 1723 24 1749 6 q 1669 64 1697 43 q 1617 101 1640 85 q 1590 118 1593 118 l 1590 1074 l 1300 576 l 728 576 l 435 1082 l 435 117 l 271 0 l 60 0 l 60 1210 l 433 1583 l 579 1583 l 951 949 l 1078 949 l 1450 1583 l 1965 1583 z "},"n":{"ha":2025,"x_min":60,"x_max":1965,"o":"m 433 1583 l 1322 1583 l 1590 1126 l 1590 1583 l 1965 1583 l 1965 0 l 1753 0 l 1590 117 l 1590 374 l 1103 1210 l 596 1210 q 515 1267 556 1238 q 435 1325 475 1296 l 435 117 l 274 0 l 60 0 l 60 1210 l 433 1583 z "},"o":{"ha":2031,"x_min":60,"x_max":1971,"o":"m 1971 1210 l 1971 375 l 1596 0 l 433 0 l 60 374 l 60 1210 l 433 1583 l 1596 1583 l 1971 1210 l 1971 1210 m 1596 1378 l 1476 1210 l 553 1210 l 435 1378 l 435 206 l 553 375 l 1476 375 l 1596 206 l 1596 1378 l 1596 1378 z "},"p":{"ha":2029,"x_min":60,"x_max":1971,"o":"m 1971 1210 l 1969 608 l 601 607 l 435 726 l 435 117 l 269 0 l 60 0 l 60 1583 l 1596 1583 l 1971 1210 l 1971 1210 m 1426 979 l 1594 860 l 1594 1329 l 1426 1210 l 601 1210 l 435 1331 l 433 979 l 1426 979 l 1426 979 z "},"q":{"ha":2031,"x_min":60,"x_max":1971,"o":"m 60 1210 l 433 1583 l 1596 1583 l 1971 1210 l 1971 617 l 1806 499 l 1596 499 l 1596 1378 l 1476 1210 l 553 1210 l 435 1378 l 435 206 l 553 375 l 1806 375 l 1971 258 l 1971 0 l 433 0 l 60 374 l 60 1210 l 60 1210 z "},"r":{"ha":2029,"x_min":60,"x_max":1969,"o":"m 1969 1211 l 1969 607 l 1610 607 l 1747 372 l 1969 372 l 1969 0 l 1525 0 l 1171 607 l 601 607 l 435 726 l 435 117 l 269 0 l 60 0 l 60 1583 l 1596 1583 l 1969 1211 m 1426 979 l 1594 860 l 1594 1329 l 1426 1210 l 601 1210 q 517 1269 560 1239 q 435 1331 475 1299 l 433 979 l 1426 979 z "},"s":{"ha":2025,"x_min":60,"x_max":1965,"o":"m 60 607 l 60 1210 l 433 1583 l 1965 1583 l 1965 1331 l 1797 1213 l 600 1213 q 517 1271 558 1242 q 435 1329 476 1300 l 435 865 l 597 982 l 1965 982 l 1965 0 l 60 0 l 60 256 l 228 375 l 1426 375 q 1509 317 1468 346 q 1590 257 1550 288 l 1590 725 l 1426 607 l 60 607 z "},"t":{"ha":2025,"x_min":60,"x_max":1965,"o":"m 60 1210 l 508 1583 l 1965 1583 l 1965 1210 l 1260 1210 l 1260 117 l 1096 0 l 886 0 l 886 1210 l 581 1210 l 435 1088 l 435 994 l 60 994 l 60 1210 l 60 1210 z "},"u":{"ha":2033,"x_min":60,"x_max":1971,"o":"m 435 1583 l 435 206 l 553 374 l 1476 374 l 1596 206 l 1596 1583 l 1971 1583 l 1971 374 l 1596 0 l 433 0 l 60 374 l 60 1583 l 435 1583 l 435 1583 z "},"v":{"ha":2021,"x_min":60,"x_max":1961,"o":"m 60 1583 l 269 1583 l 435 1468 l 435 914 l 751 375 l 1268 375 l 1586 917 l 1586 1467 l 1750 1583 l 1961 1583 l 1961 810 l 1489 0 l 531 0 q 294 403 413 203 q 60 807 176 603 l 60 1583 z "},"w":{"ha":2021,"x_min":60,"x_max":1961,"o":"m 60 374 l 60 1583 l 269 1583 l 435 1468 l 435 260 l 596 375 l 658 375 q 740 315 699 344 q 822 258 781 286 l 822 1583 l 1199 1583 l 1199 261 l 1360 375 l 1424 375 l 1586 260 l 1586 1468 l 1750 1583 l 1961 1583 l 1961 374 l 1588 0 l 433 0 l 60 374 z "},"x":{"ha":2021,"x_min":60,"x_max":1961,"o":"m 60 0 l 60 274 l 238 604 l 60 717 l 60 1583 l 269 1583 l 435 1468 l 435 1093 l 269 978 l 1750 978 l 1586 1094 l 1586 1468 l 1750 1583 l 1961 1583 l 1961 717 l 1783 604 l 1961 274 l 1961 0 l 1751 0 l 1586 115 l 1586 239 l 1390 604 l 631 604 l 435 239 l 435 115 l 271 0 l 60 0 l 60 0 z "},"y":{"ha":2021,"x_min":60,"x_max":1961,"o":"m 60 982 l 60 1583 l 274 1583 l 435 1468 l 435 988 l 1586 988 l 1586 1468 l 1751 1583 l 1961 1583 l 1961 979 l 1589 607 l 1342 607 l 1200 775 l 1200 0 l 821 0 l 821 775 l 678 607 l 433 607 l 60 982 l 60 982 z "},"z":{"ha":2025,"x_min":60,"x_max":1965,"o":"m 60 374 l 60 375 l 1313 1213 l 228 1213 l 60 1331 l 60 1583 l 1596 1583 l 1965 1215 l 1965 1213 l 711 375 l 1797 375 l 1965 256 l 1965 0 l 433 0 l 60 374 l 60 374 z "},"Ž":{"ha":2025,"x_min":60,"x_max":1965,"o":"m 60 374 l 60 375 l 1313 1213 l 228 1213 l 60 1331 l 60 1583 l 1596 1583 l 1965 1215 l 1965 1213 l 711 375 l 1797 375 l 1965 256 l 1965 0 l 433 0 l 60 374 l 60 374 m 615 1982 l 910 1982 l 1007 1879 l 1011 1879 l 1110 1982 l 1410 1982 l 1079 1657 l 942 1657 l 615 1982 l 615 1982 z "},"ž":{"ha":2025,"x_min":60,"x_max":1965,"o":"m 60 374 l 60 375 l 1313 1213 l 228 1213 l 60 1331 l 60 1583 l 1596 1583 l 1965 1215 l 1965 1213 l 711 375 l 1797 375 l 1965 256 l 1965 0 l 433 0 l 60 374 l 60 374 m 615 1982 l 910 1982 l 1007 1879 l 1011 1879 l 1110 1982 l 1410 1982 l 1079 1657 l 942 1657 l 615 1982 l 615 1982 z "},"Æ":{"ha":4056,"x_min":60,"x_max":3996,"o":"m 60 0 l 60 1210 l 433 1583 l 1596 1583 l 1971 1210 l 1971 0 l 1596 0 l 1596 1378 l 1476 1210 l 553 1210 l 435 1378 l 435 0 l 60 0 m 2467 0 l 2090 375 l 2090 1210 l 2464 1583 l 3996 1583 l 3996 1331 l 3828 1213 l 2631 1213 q 2547 1271 2589 1242 q 2465 1329 2506 1300 l 2465 982 l 3536 982 l 3704 864 l 3704 607 l 2631 607 l 2465 725 l 2465 256 l 2633 375 l 3825 375 l 3993 256 l 3993 0 l 2467 0 z "},"æ":{"ha":4056,"x_min":60,"x_max":3996,"o":"m 60 0 l 60 1210 l 433 1583 l 1596 1583 l 1971 1210 l 1971 0 l 1596 0 l 1596 1378 l 1476 1210 l 553 1210 l 435 1378 l 435 0 l 60 0 m 2467 0 l 2090 375 l 2090 1210 l 2464 1583 l 3996 1583 l 3996 1331 l 3828 1213 l 2631 1213 q 2547 1271 2589 1242 q 2465 1329 2506 1300 l 2465 982 l 3536 982 l 3704 864 l 3704 607 l 2631 607 l 2465 725 l 2465 256 l 2633 375 l 3825 375 l 3993 256 l 3993 0 l 2467 0 z "},"ø":{"ha":2031,"x_min":60,"x_max":1971,"o":"m 1971 1210 l 1971 375 l 1596 0 l 433 0 l 60 374 l 60 1210 l 433 1583 l 1596 1583 l 1971 1210 l 1971 1210 m 1596 1378 l 1476 1210 l 553 1210 l 435 1378 l 435 206 l 553 375 l 1476 375 l 1596 206 l 1596 1378 l 1596 1378 m 1594 1601 l 758 -47 l 408 -47 l 1246 1601 l 1594 1601 l 1594 1601 z "},"À":{"ha":2031,"x_min":60,"x_max":1971,"o":"m 60 0 l 60 1210 l 433 1583 l 1596 1583 l 1971 1210 l 1971 0 l 1596 0 l 1596 1378 l 1476 1210 l 553 1210 l 435 1378 l 435 0 l 60 0 l 60 0 m 1081 1982 l 1281 1657 l 1025 1657 l 749 1982 l 1081 1982 l 1081 1982 z "},"Ã":{"ha":2031,"x_min":60,"x_max":1971,"o":"m 60 0 l 60 1210 l 433 1583 l 1596 1583 l 1971 1210 l 1971 0 l 1596 0 l 1596 1378 l 1476 1210 l 553 1210 l 435 1378 l 435 0 l 60 0 m 890 1975 q 963 1958 929 1975 q 1026 1919 996 1940 q 1084 1881 1056 1899 q 1142 1864 1113 1864 q 1176 1888 1164 1864 q 1190 1928 1188 1911 l 1353 1928 q 1342 1824 1353 1875 q 1308 1733 1332 1774 q 1242 1667 1283 1692 q 1140 1642 1201 1642 q 1069 1657 1104 1642 q 1003 1690 1035 1672 q 947 1724 972 1708 q 904 1739 921 1739 q 860 1726 876 1739 q 844 1682 844 1714 l 679 1682 l 679 1700 q 692 1795 679 1746 q 731 1884 706 1844 q 797 1949 757 1924 q 890 1975 836 1975 z "},"Õ":{"ha":2031,"x_min":60,"x_max":1971,"o":"m 1971 1210 l 1971 375 l 1596 0 l 433 0 l 60 374 l 60 1210 l 433 1583 l 1596 1583 l 1971 1210 m 1596 1378 l 1476 1210 l 553 1210 l 435 1378 l 435 206 l 553 375 l 1476 375 l 1596 206 l 1596 1378 m 890 1975 q 963 1958 929 1975 q 1026 1919 996 1940 q 1084 1881 1056 1899 q 1142 1864 1113 1864 q 1176 1888 1164 1864 q 1190 1928 1188 1911 l 1353 1928 q 1342 1824 1353 1875 q 1308 1733 1332 1774 q 1242 1667 1283 1692 q 1140 1642 1201 1642 q 1069 1657 1104 1642 q 1003 1690 1035 1672 q 947 1724 972 1708 q 904 1739 921 1739 q 860 1726 876 1739 q 844 1682 844 1714 l 679 1682 l 679 1700 q 692 1795 679 1746 q 731 1884 706 1844 q 797 1949 757 1924 q 890 1975 836 1975 z "},"Œ":{"ha":4056,"x_min":60,"x_max":3996,"o":"m 1971 1210 l 1971 375 l 1596 0 l 433 0 l 60 374 l 60 1210 l 433 1583 l 1596 1583 l 1971 1210 m 1596 1378 l 1476 1210 l 553 1210 l 435 1378 l 435 206 l 553 375 l 1476 375 l 1596 206 l 1596 1378 m 2467 0 l 2090 375 l 2090 1210 l 2464 1583 l 3996 1583 l 3996 1331 l 3828 1213 l 2631 1213 q 2547 1271 2589 1242 q 2465 1329 2506 1300 l 2465 982 l 3536 982 l 3704 864 l 3704 607 l 2631 607 l 2465 725 l 2465 256 l 2633 375 l 3825 375 l 3993 256 l 3993 0 l 2467 0 z "},"œ":{"ha":4056,"x_min":60,"x_max":3996,"o":"m 1971 1210 l 1971 375 l 1596 0 l 433 0 l 60 374 l 60 1210 l 433 1583 l 1596 1583 l 1971 1210 m 1596 1378 l 1476 1210 l 553 1210 l 435 1378 l 435 206 l 553 375 l 1476 375 l 1596 206 l 1596 1378 m 2467 0 l 2090 375 l 2090 1210 l 2464 1583 l 3996 1583 l 3996 1331 l 3828 1213 l 2631 1213 q 2547 1271 2589 1242 q 2465 1329 2506 1300 l 2465 982 l 3536 982 l 3704 864 l 3704 607 l 2631 607 l 2465 725 l 2465 256 l 2633 375 l 3825 375 l 3993 256 l 3993 0 l 2467 0 z "},"ÿ":{"ha":2021,"x_min":60,"x_max":1961,"o":"m 60 982 l 60 1583 l 274 1583 l 435 1468 l 435 988 l 1586 988 l 1586 1468 l 1751 1583 l 1961 1583 l 1961 979 l 1589 607 l 1342 607 l 1200 775 l 1200 0 l 821 0 l 821 775 l 678 607 l 433 607 l 60 982 m 883 1888 q 965 1853 933 1888 q 996 1771 996 1819 q 964 1690 996 1724 q 883 1656 932 1656 q 801 1689 835 1656 q 768 1771 768 1722 q 801 1853 768 1818 q 883 1888 835 1888 m 1142 1888 q 1222 1853 1192 1888 q 1253 1771 1253 1819 q 1222 1690 1253 1724 q 1142 1656 1190 1656 q 1060 1689 1093 1656 q 1028 1771 1028 1722 q 1060 1853 1028 1819 q 1142 1888 1093 1888 z "},"Ÿ":{"ha":2021,"x_min":60,"x_max":1961,"o":"m 60 982 l 60 1583 l 274 1583 l 435 1468 l 435 988 l 1586 988 l 1586 1468 l 1751 1583 l 1961 1583 l 1961 979 l 1589 607 l 1342 607 l 1200 775 l 1200 0 l 821 0 l 821 775 l 678 607 l 433 607 l 60 982 m 883 1888 q 965 1853 933 1888 q 996 1771 996 1819 q 964 1690 996 1724 q 883 1656 932 1656 q 801 1689 835 1656 q 768 1771 768 1722 q 801 1853 768 1818 q 883 1888 835 1888 m 1142 1888 q 1222 1853 1192 1888 q 1253 1771 1253 1819 q 1222 1690 1253 1724 q 1142 1656 1190 1656 q 1060 1689 1093 1656 q 1028 1771 1028 1722 q 1060 1853 1028 1819 q 1142 1888 1093 1888 z "},"ﬁ":{"ha":4036,"x_min":60,"x_max":3976,"o":"m 60 0 l 60 1210 l 429 1583 l 1963 1583 l 1963 1328 l 1794 1210 l 600 1210 l 435 1328 l 435 858 q 516 919 475 889 q 600 976 557 949 l 1674 976 l 1674 721 l 1506 601 l 435 601 l 435 118 l 267 0 l 60 0 m 2082 1328 l 2082 1583 l 3975 1583 l 3976 1210 l 3381 1210 q 3298 1267 3339 1239 q 3217 1326 3257 1296 l 3217 257 l 3381 375 l 3811 375 l 3975 257 l 3975 0 l 2082 0 l 2082 375 l 2678 375 l 2842 257 l 2842 1326 l 2678 1210 l 2246 1210 l 2082 1328 z "},"ﬂ":{"ha":4053,"x_min":60,"x_max":3993,"o":"m 60 0 l 60 1210 l 429 1583 l 1963 1583 l 1963 1328 l 1794 1210 l 600 1210 l 435 1328 l 435 858 q 516 919 475 889 q 600 976 557 949 l 1674 976 l 1674 721 l 1506 601 l 435 601 l 435 118 l 267 0 l 60 0 m 2082 1583 l 2457 1583 l 2457 204 l 2607 375 l 3831 375 l 3993 258 l 3993 0 l 2463 0 l 2082 375 l 2082 1583 z "},"Â":{"ha":2031,"x_min":60,"x_max":1971,"o":"m 60 0 l 60 1210 l 433 1583 l 1596 1583 l 1971 1210 l 1971 0 l 1596 0 l 1596 1378 l 1476 1210 l 553 1210 l 435 1378 l 435 0 l 60 0 l 60 0 m 618 1658 l 944 1983 l 1082 1983 l 1413 1658 l 1113 1658 l 1014 1763 l 1010 1763 l 913 1658 l 618 1658 l 618 1658 z "},"Ê":{"ha":2025,"x_min":60,"x_max":1965,"o":"m 436 0 l 60 375 l 60 1210 l 433 1583 l 1965 1583 l 1965 1331 l 1797 1213 l 600 1213 q 517 1271 558 1242 q 435 1329 475 1300 l 435 982 l 1506 982 l 1674 864 l 1674 607 l 600 607 l 435 725 l 435 256 l 603 375 l 1794 375 l 1963 256 l 1963 0 l 436 0 m 615 1658 l 942 1983 l 1079 1983 l 1410 1658 l 1110 1658 l 1011 1763 l 1007 1763 l 910 1658 l 615 1658 z "},"Á":{"ha":2031,"x_min":60,"x_max":1971,"o":"m 60 0 l 60 1210 l 433 1583 l 1596 1583 l 1971 1210 l 1971 0 l 1596 0 l 1596 1378 l 1476 1210 l 553 1210 l 435 1378 l 435 0 l 60 0 l 60 0 m 1281 1982 l 1004 1657 l 749 1657 l 949 1982 l 1281 1982 l 1281 1982 z "},"Ë":{"ha":2025,"x_min":60,"x_max":1965,"o":"m 436 0 l 60 375 l 60 1210 l 433 1583 l 1965 1583 l 1965 1331 l 1797 1213 l 600 1213 q 517 1271 558 1242 q 435 1329 475 1300 l 435 982 l 1506 982 l 1674 864 l 1674 607 l 600 607 l 435 725 l 435 256 l 603 375 l 1794 375 l 1963 256 l 1963 0 l 436 0 m 885 1888 q 966 1853 935 1888 q 997 1771 997 1819 q 965 1690 997 1724 q 885 1656 933 1656 q 803 1689 836 1656 q 769 1771 769 1722 q 803 1853 769 1818 q 885 1888 836 1888 m 1143 1888 q 1224 1853 1193 1888 q 1254 1771 1254 1819 q 1223 1690 1254 1724 q 1143 1656 1192 1656 q 1062 1689 1094 1656 q 1029 1771 1029 1722 q 1062 1853 1029 1819 q 1143 1888 1094 1888 z "},"È":{"ha":2025,"x_min":60,"x_max":1965,"o":"m 436 0 l 60 375 l 60 1210 l 433 1583 l 1965 1583 l 1965 1331 l 1797 1213 l 600 1213 q 517 1271 558 1242 q 435 1329 475 1300 l 435 982 l 1506 982 l 1674 864 l 1674 607 l 600 607 l 435 725 l 435 256 l 603 375 l 1794 375 l 1963 256 l 1963 0 l 436 0 m 1078 1982 l 1278 1657 l 1022 1657 l 746 1982 l 1078 1982 z "},"Í":{"ha":2014,"x_min":60,"x_max":1954,"o":"m 60 1328 l 60 1583 l 1953 1583 l 1954 1210 l 1358 1210 q 1276 1267 1317 1239 q 1194 1326 1235 1296 l 1194 257 l 1358 375 l 1789 375 l 1953 257 l 1953 0 l 60 0 l 60 375 l 656 375 l 819 257 l 819 1326 l 656 1210 l 224 1210 l 60 1328 m 1272 1982 l 996 1657 l 740 1657 l 940 1982 l 1272 1982 z "},"Î":{"ha":2014,"x_min":60,"x_max":1954,"o":"m 60 1328 l 60 1583 l 1953 1583 l 1954 1210 l 1358 1210 q 1276 1267 1317 1239 q 1194 1326 1235 1296 l 1194 257 l 1358 375 l 1789 375 l 1953 257 l 1953 0 l 60 0 l 60 375 l 656 375 l 819 257 l 819 1326 l 656 1210 l 224 1210 l 60 1328 m 610 1658 l 936 1983 l 1074 1983 l 1404 1658 l 1104 1658 l 1006 1763 l 1001 1763 l 904 1658 l 610 1658 z "},"Ï":{"ha":2014,"x_min":60,"x_max":1954,"o":"m 60 1328 l 60 1583 l 1953 1583 l 1954 1210 l 1358 1210 q 1276 1267 1317 1239 q 1194 1326 1235 1296 l 1194 257 l 1358 375 l 1789 375 l 1953 257 l 1953 0 l 60 0 l 60 375 l 656 375 l 819 257 l 819 1326 l 656 1210 l 224 1210 l 60 1328 m 879 1888 q 960 1853 929 1888 q 992 1771 992 1819 q 960 1690 992 1724 q 879 1656 928 1656 q 797 1689 831 1656 q 764 1771 764 1722 q 797 1853 764 1818 q 879 1888 831 1888 m 1138 1888 q 1218 1853 1188 1888 q 1249 1771 1249 1819 q 1217 1690 1249 1724 q 1138 1656 1186 1656 q 1056 1689 1089 1656 q 1024 1771 1024 1722 q 1056 1853 1024 1819 q 1138 1888 1089 1888 z "},"Ì":{"ha":2014,"x_min":60,"x_max":1954,"o":"m 60 1328 l 60 1583 l 1953 1583 l 1954 1210 l 1358 1210 q 1276 1267 1317 1239 q 1194 1326 1235 1296 l 1194 257 l 1358 375 l 1789 375 l 1953 257 l 1953 0 l 60 0 l 60 375 l 656 375 l 819 257 l 819 1326 l 656 1210 l 224 1210 l 60 1328 m 1072 1982 l 1272 1657 l 1017 1657 l 740 1982 l 1072 1982 z "},"Ó":{"ha":2031,"x_min":60,"x_max":1971,"o":"m 1971 1210 l 1971 375 l 1596 0 l 433 0 l 60 374 l 60 1210 l 433 1583 l 1596 1583 l 1971 1210 l 1971 1210 m 1596 1378 l 1476 1210 l 553 1210 l 435 1378 l 435 206 l 553 375 l 1476 375 l 1596 206 l 1596 1378 l 1596 1378 m 1281 1982 l 1004 1657 l 749 1657 l 949 1982 l 1281 1982 l 1281 1982 z "},"Ô":{"ha":2031,"x_min":60,"x_max":1971,"o":"m 1971 1210 l 1971 375 l 1596 0 l 433 0 l 60 374 l 60 1210 l 433 1583 l 1596 1583 l 1971 1210 l 1971 1210 m 1596 1378 l 1476 1210 l 553 1210 l 435 1378 l 435 206 l 553 375 l 1476 375 l 1596 206 l 1596 1378 l 1596 1378 m 618 1658 l 944 1983 l 1082 1983 l 1413 1658 l 1113 1658 l 1014 1763 l 1010 1763 l 913 1658 l 618 1658 l 618 1658 z "},"Ò":{"ha":2031,"x_min":60,"x_max":1971,"o":"m 1971 1210 l 1971 375 l 1596 0 l 433 0 l 60 374 l 60 1210 l 433 1583 l 1596 1583 l 1971 1210 l 1971 1210 m 1596 1378 l 1476 1210 l 553 1210 l 435 1378 l 435 206 l 553 375 l 1476 375 l 1596 206 l 1596 1378 l 1596 1378 m 1081 1982 l 1281 1657 l 1025 1657 l 749 1982 l 1081 1982 l 1081 1982 z "},"Ú":{"ha":2033,"x_min":60,"x_max":1971,"o":"m 435 1583 l 435 206 l 553 374 l 1476 374 l 1596 206 l 1596 1583 l 1971 1583 l 1971 374 l 1596 0 l 433 0 l 60 374 l 60 1583 l 435 1583 l 435 1583 m 1282 1982 l 1006 1657 l 750 1657 l 950 1982 l 1282 1982 l 1282 1982 z "},"Û":{"ha":2033,"x_min":60,"x_max":1971,"o":"m 435 1583 l 435 206 l 553 374 l 1476 374 l 1596 206 l 1596 1583 l 1971 1583 l 1971 374 l 1596 0 l 433 0 l 60 374 l 60 1583 l 435 1583 l 435 1583 m 619 1658 l 946 1983 l 1083 1983 l 1414 1658 l 1114 1658 l 1015 1763 l 1011 1763 l 914 1658 l 619 1658 l 619 1658 z "},"Ù":{"ha":2033,"x_min":60,"x_max":1971,"o":"m 435 1583 l 435 206 l 553 374 l 1476 374 l 1596 206 l 1596 1583 l 1971 1583 l 1971 374 l 1596 0 l 433 0 l 60 374 l 60 1583 l 435 1583 l 435 1583 m 1082 1982 l 1282 1657 l 1026 1657 l 750 1982 l 1082 1982 l 1082 1982 z "}}}
